<svg width="24" height="24" viewBox="0 0 24 24" fill="none" xmlns="http://www.w3.org/2000/svg">
<path d="M11.9988 22C17.5216 22 21.9988 17.5228 21.9988 12C21.9988 6.47715 17.5216 2 11.9988 2C6.47593 2 1.99878 6.47715 1.99878 12C1.99878 17.5228 6.47593 22 11.9988 22Z" fill="white" style="fill:white;fill-opacity:1;"/>
<path d="M8.98096 3.44434V8.46015L4.86597 6.39983C5.93043 5.04524 7.35733 4.0204 8.98096 3.44434Z" fill="#22468F" style="fill:#22468F;fill:color(display-p3 0.1333 0.2745 0.5608);fill-opacity:1;"/>
<path d="M19.1333 6.39983L15.0183 8.46015V3.44434C16.642 4.02026 18.0689 5.04512 19.1333 6.39983Z" fill="#22468F" style="fill:#22468F;fill:color(display-p3 0.1333 0.2745 0.5608);fill-opacity:1;"/>
<path d="M8.98096 15.54V20.5547C7.35726 19.9788 5.93032 18.9539 4.86597 17.5992L8.98096 15.54Z" fill="#22468F" style="fill:#22468F;fill:color(display-p3 0.1333 0.2745 0.5608);fill-opacity:1;"/>
<path d="M19.1333 17.5992C18.0692 18.9542 16.6422 19.9791 15.0183 20.5547V15.54L19.1333 17.5992Z" fill="#22468F" style="fill:#22468F;fill:color(display-p3 0.1333 0.2745 0.5608);fill-opacity:1;"/>
<path d="M21.07 11.9994C21.0703 12.6088 21.0093 13.2168 20.8881 13.814C20.8048 14.2228 20.6927 14.6252 20.5527 15.0181H18.0112L20.1065 16.0658C19.8338 16.608 19.5072 17.1213 19.1317 17.5981L15.0167 15.5389V20.5536C14.6239 20.6938 14.2215 20.8055 13.8126 20.8879C12.6151 21.1319 11.3808 21.1319 10.1833 20.8879C9.77408 20.8054 9.3713 20.6937 8.97806 20.5536V15.54L4.86307 17.5992C4.73599 17.4371 4.614 17.2705 4.49879 17.1005L8.65896 15.0187H5.94801L3.88092 16.0528C2.97442 14.2384 2.70219 12.1726 3.10773 10.1853C3.19024 9.7761 3.30198 9.37332 3.44208 8.98007H5.96552L3.88543 7.93918C4.15931 7.39476 4.48681 6.87901 4.86307 6.39959L8.97806 8.45991V3.4441C9.3713 3.30399 9.77408 3.19226 10.1833 3.10975C11.3808 2.86576 12.6151 2.86576 13.8126 3.10975C14.2215 3.19211 14.6239 3.30385 15.0167 3.4441V8.45991L19.1317 6.39959C19.2578 6.55999 19.3777 6.72415 19.4914 6.89208L15.32 8.98177H18.0309L20.1099 7.94088C20.4676 8.65188 20.7295 9.40717 20.8887 10.187C21.0096 10.7836 21.0703 11.3907 21.07 11.9994Z" fill="white" style="fill:white;fill-opacity:1;"/>
<path d="M5.96753 8.98034H3.44409C3.56949 8.62426 3.71757 8.27659 3.88744 7.93945L5.96753 8.98034Z" fill="#D51F33" style="fill:#D51F33;fill:color(display-p3 0.8353 0.1216 0.2000);fill-opacity:1;"/>
<path d="M20.5537 15.0195C20.4278 15.3782 20.2788 15.7284 20.1075 16.0678L18.0144 15.0195H20.5537Z" fill="#D51F33" style="fill:#D51F33;fill:color(display-p3 0.8353 0.1216 0.2000);fill-opacity:1;"/>
<path d="M20.1129 7.9404L18.0339 8.98129H15.323L19.4945 6.8916C19.7244 7.22663 19.931 7.57706 20.1129 7.9404Z" fill="#D51F33" style="fill:#D51F33;fill:color(display-p3 0.8353 0.1216 0.2000);fill-opacity:1;"/>
<path d="M8.65907 15.0195L4.4989 17.1013C4.2694 16.7666 4.06314 16.4166 3.88159 16.0536L5.94869 15.0195H8.65907Z" fill="#D51F33" style="fill:#D51F33;fill:color(display-p3 0.8353 0.1216 0.2000);fill-opacity:1;"/>
<path d="M21.0698 11.9994C21.0701 12.6088 21.0092 13.2168 20.888 13.814H13.8124V20.889C12.6149 21.133 11.3806 21.133 10.1831 20.889V13.8146H3.10755C2.86356 12.6171 2.86356 11.3828 3.10755 10.1853H10.1831V3.10975C11.3806 2.86576 12.6149 2.86576 13.8124 3.10975V10.1853H20.888C21.0092 10.7824 21.0701 11.3901 21.0698 11.9994Z" fill="#D51F33" style="fill:#D51F33;fill:color(display-p3 0.8353 0.1216 0.2000);fill-opacity:1;"/>
</svg>
