<svg width="20" height="21" viewBox="0 0 20 21" fill="none" xmlns="http://www.w3.org/2000/svg">
<path d="M16.8556 3.30167C18.7445 5.28501 19.689 7.68445 19.689 10.5C19.689 13.3156 18.7445 15.715 16.8556 17.6983C14.9667 19.6817 12.6816 20.6733 10.0001 20.6733C7.31859 20.6733 5.03341 19.6817 3.14452 17.6983C1.25748 15.715 0.313965 13.3156 0.313965 10.5C0.313965 7.68445 1.25748 5.28501 3.14452 3.30167C5.03341 1.32028 7.31859 0.32959 10.0001 0.32959C12.6816 0.32959 14.9667 1.32028 16.8556 3.30167ZM8.86674 15.8725L16.0556 8.32709C16.3667 8.0257 16.3667 7.72431 16.0556 7.42292L15.1945 6.48084C14.8834 6.17945 14.5843 6.17945 14.2973 6.48084L8.43896 12.6321L5.70285 9.76209C5.41582 9.4607 5.11674 9.4607 4.80563 9.76209L3.94452 10.7042C3.63341 11.0056 3.63341 11.3069 3.94452 11.6083L8.00841 15.8725C8.29545 16.2011 8.58156 16.2011 8.86674 15.8725Z" fill="#D0D9E9" style="fill:#D0D9E9;fill:color(display-p3 0.8157 0.8510 0.9137);fill-opacity:1;"/>
</svg>
