<svg xmlns="http://www.w3.org/2000/svg" width="13.161" height="20.42" viewBox="0 0 13.161 20.42"><defs><style>.a{fill:#197cf4;}</style></defs><g transform="translate(-90.999 0)"><path class="a" d="M144.538,2.228V.6a.6.6,0,0,0-.93-.5l-5.569,3.753Z" transform="translate(-45.164 0)"/><path class="a" d="M171.288,76.006l-7.106,1.777h7.849v-1.2a.6.6,0,0,0-.743-.58Z" transform="translate(-70.264 -72.957)"/><path class="a" d="M271,301h1.2v2.393H271Z" transform="translate(-172.821 -288.994)"/><path class="a" d="M217.154,244.03l-1.614,1.076h3.227Z" transform="translate(-119.574 -234.298)"/><path class="a" d="M91,151.6v13.2a.6.6,0,0,0,.6.6h11.965a.6.6,0,0,0,.6-.6V151.6a.6.6,0,0,0-.6-.6H91.6A.6.6,0,0,0,91,151.6Zm2.991,5.384a.6.6,0,0,1-.332-1.1l3.589-2.393a.6.6,0,0,1,.664,0l3.589,2.393a.6.6,0,0,1-.332,1.1h-.6v2.393h.6a.6.6,0,0,1,0,1.2H93.99a.6.6,0,1,1,0-1.2h.6V156.98Zm0,4.786h7.179a.6.6,0,0,1,0,1.2H93.99a.6.6,0,1,1,0-1.2Z" transform="translate(0 -144.976)"/><path class="a" d="M211,301h1.2v2.393H211Z" transform="translate(-115.214 -288.994)"/></g></svg>