<svg xmlns="http://www.w3.org/2000/svg" width="12.724" height="16.872" viewBox="0 0 12.724 16.872"><defs><style>.a{fill:none;stroke:#707070;}</style></defs><g transform="translate(-54.796 0.5)"><g transform="translate(55.296)"><path class="a" d="M65.488,0H56.829A1.537,1.537,0,0,0,55.3,1.533V14.9a.959.959,0,0,0,.536.862.971.971,0,0,0,1.015-.115l.019-.019,4.291-3.621,4.291,3.621.019.019a.977.977,0,0,0,.594.211.873.873,0,0,0,.421-.115.959.959,0,0,0,.536-.862V1.533A1.537,1.537,0,0,0,65.488,0Z" transform="translate(-55.296)"/></g></g></svg>