<svg xmlns="http://www.w3.org/2000/svg" xmlns:xlink="http://www.w3.org/1999/xlink" width="388" height="220.5" viewBox="0 0 388 220.5">
  <defs>
    <clipPath id="clip-path">
      <rect width="79" height="144" fill="none"/>
    </clipPath>
    <clipPath id="clip-path-2">
      <rect width="85" height="155" fill="none"/>
    </clipPath>
    <clipPath id="clip-path-3">
      <rect width="69" height="130" fill="none"/>
    </clipPath>
  </defs>
  <g id="Group_9538" data-name="Group 9538" transform="translate(19242 -436)">
    <path id="Path_35268" data-name="Path 35268" d="M0,0H388V219H0Z" transform="translate(-19242 436)" fill="#ebf6ff"/>
    <path id="Subtraction_39" data-name="Subtraction 39" d="M409.436,256.543h-279.3a147.577,147.577,0,1,1,279.3,0Z" transform="translate(-19309 399.957)" fill="#197cf4" opacity="0.105"/>
    <g id="Group_8908" data-name="Group 8908" transform="translate(-19296 321)" opacity="0.498">
      <g id="Group_7" data-name="Group 7" transform="translate(54.247 184.054)">
        <g id="Group_8910" data-name="Group 8910">
          <path id="Path_20" data-name="Path 20" d="M143.546,335.877H113.783V244.97l29.764-13.362Z" transform="translate(-54.78 -185.309)" fill="#61a7ea"/>
          <rect id="Rectangle_16" data-name="Rectangle 16" width="29.338" height="42.616" transform="translate(112.152 150.568) rotate(180)" fill="#61a7ea"/>
          <rect id="Rectangle_17" data-name="Rectangle 17" width="27.638" height="80.458" transform="translate(139.79 150.568) rotate(180)" fill="#61a7ea"/>
          <rect id="Rectangle_18" data-name="Rectangle 18" width="11.383" height="89.605" transform="translate(131.663 128.988) rotate(180)" fill="#61a7ea"/>
          <rect id="Rectangle_19" data-name="Rectangle 19" width="2.19" height="114.377" transform="translate(127.066 114.377) rotate(180)" fill="#61a7ea"/>
          <rect id="Rectangle_20" data-name="Rectangle 20" width="14.457" height="49.419" transform="translate(151.27 150.568) rotate(180)" fill="#61a7ea"/>
          <rect id="Rectangle_21" data-name="Rectangle 21" width="16.157" height="62.175" transform="translate(164.026 150.568) rotate(180)" fill="#61a7ea"/>
          <path id="Path_21" data-name="Path 21" d="M250.345,335.652H217.18v-129.2l33.165,17.7Z" transform="translate(-55.705 -185.084)" fill="#61a7ea"/>
          <rect id="Rectangle_22" data-name="Rectangle 22" width="35.291" height="77.482" transform="translate(226.955 150.568) rotate(180)" fill="#61a7ea"/>
          <rect id="Rectangle_23" data-name="Rectangle 23" width="16.157" height="29.01" transform="translate(239.711 150.568) rotate(180)" fill="#61a7ea"/>
          <rect id="Rectangle_24" data-name="Rectangle 24" width="20.409" height="60.899" transform="translate(257.569 150.568) rotate(180)" fill="#61a7ea"/>
          <path id="Path_22" data-name="Path 22" d="M357.083,336h-43.37V259.37l21.643-13.879,21.727,13.879Z" transform="translate(-56.569 -185.433)" fill="#61a7ea"/>
          <rect id="Rectangle_25" data-name="Rectangle 25" width="45.071" height="43.891" transform="translate(341.332 150.568) rotate(180)" fill="#61a7ea"/>
          <rect id="Rectangle_26" data-name="Rectangle 26" width="28.913" height="94.915" transform="translate(365.994 150.568) rotate(180)" fill="#61a7ea"/>
          <rect id="Rectangle_27" data-name="Rectangle 27" width="24.236" height="55.372" transform="translate(387.253 150.568) rotate(180)" fill="#61a7ea"/>
          <rect id="Rectangle_28" data-name="Rectangle 28" width="38.515" height="53.79" transform="translate(63.867 150.568) rotate(180)" fill="#61a7ea"/>
          <rect id="Rectangle_29" data-name="Rectangle 29" width="28.277" height="41.601" transform="translate(28.277 150.568) rotate(180)" fill="#61a7ea"/>
        </g>
        <rect id="Rectangle_30" data-name="Rectangle 30" width="4.836" height="13.021" transform="translate(168.34 42.541)" fill="#c5e6ee"/>
        <rect id="Rectangle_31" data-name="Rectangle 31" width="4.837" height="13.021" transform="translate(180.431 42.541)" fill="#c5e6ee"/>
        <rect id="Rectangle_32" data-name="Rectangle 32" width="4.836" height="13.021" transform="translate(168.34 67.281)" fill="#c5e6ee"/>
        <rect id="Rectangle_33" data-name="Rectangle 33" width="4.837" height="13.021" transform="translate(180.431 67.281)" fill="#c5e6ee"/>
        <rect id="Rectangle_34" data-name="Rectangle 34" width="4.836" height="13.021" transform="translate(168.34 92.022)" fill="#c5e6ee"/>
        <rect id="Rectangle_35" data-name="Rectangle 35" width="4.837" height="13.021" transform="translate(180.431 92.022)" fill="#c5e6ee"/>
        <rect id="Rectangle_36" data-name="Rectangle 36" width="4.836" height="13.021" transform="translate(168.34 116.762)" fill="#c5e6ee"/>
        <rect id="Rectangle_37" data-name="Rectangle 37" width="4.837" height="13.021" transform="translate(180.431 116.762)" fill="#c5e6ee"/>
        <rect id="Rectangle_38" data-name="Rectangle 38" width="4.836" height="13.021" transform="translate(200.707 82.535)" fill="#c5e6ee"/>
        <rect id="Rectangle_39" data-name="Rectangle 39" width="4.837" height="13.021" transform="translate(212.799 82.535)" fill="#c5e6ee"/>
        <rect id="Rectangle_40" data-name="Rectangle 40" width="4.836" height="13.021" transform="translate(200.707 107.275)" fill="#c5e6ee"/>
        <rect id="Rectangle_41" data-name="Rectangle 41" width="4.837" height="13.021" transform="translate(212.799 107.275)" fill="#c5e6ee"/>
        <rect id="Rectangle_42" data-name="Rectangle 42" width="4.837" height="13.021" transform="translate(242.003 94.812)" fill="#c5e6ee"/>
        <rect id="Rectangle_43" data-name="Rectangle 43" width="4.836" height="13.021" transform="translate(254.095 94.812)" fill="#c5e6ee"/>
        <rect id="Rectangle_44" data-name="Rectangle 44" width="4.837" height="13.021" transform="translate(242.003 119.552)" fill="#c5e6ee"/>
        <rect id="Rectangle_45" data-name="Rectangle 45" width="4.836" height="13.021" transform="translate(254.095 119.552)" fill="#c5e6ee"/>
        <rect id="Rectangle_46" data-name="Rectangle 46" width="4.837" height="13.021" transform="translate(272.138 80.674)" fill="#c5e6ee"/>
        <rect id="Rectangle_47" data-name="Rectangle 47" width="4.836" height="13.021" transform="translate(284.23 80.674)" fill="#c5e6ee"/>
        <rect id="Rectangle_48" data-name="Rectangle 48" width="4.837" height="13.021" transform="translate(272.138 105.415)" fill="#c5e6ee"/>
        <rect id="Rectangle_49" data-name="Rectangle 49" width="4.836" height="13.021" transform="translate(284.23 105.415)" fill="#c5e6ee"/>
        <rect id="Rectangle_50" data-name="Rectangle 50" width="4.837" height="13.021" transform="translate(344.313 65.049)" fill="#c5e6ee"/>
        <rect id="Rectangle_51" data-name="Rectangle 51" width="4.836" height="13.021" transform="translate(356.405 65.049)" fill="#c5e6ee"/>
        <rect id="Rectangle_52" data-name="Rectangle 52" width="4.837" height="13.021" transform="translate(344.313 89.789)" fill="#c5e6ee"/>
        <rect id="Rectangle_53" data-name="Rectangle 53" width="4.836" height="13.021" transform="translate(356.405 89.789)" fill="#c5e6ee"/>
        <rect id="Rectangle_54" data-name="Rectangle 54" width="4.837" height="13.021" transform="translate(118.487 75.838)" fill="#c5e6ee"/>
        <rect id="Rectangle_55" data-name="Rectangle 55" width="4.836" height="13.021" transform="translate(130.579 75.838)" fill="#c5e6ee"/>
        <rect id="Rectangle_56" data-name="Rectangle 56" width="4.837" height="13.021" transform="translate(118.487 100.578)" fill="#c5e6ee"/>
        <rect id="Rectangle_57" data-name="Rectangle 57" width="4.836" height="13.021" transform="translate(130.579 100.578)" fill="#c5e6ee"/>
        <rect id="Rectangle_58" data-name="Rectangle 58" width="4.836" height="13.021" transform="translate(66.03 64.677)" fill="#c5e6ee"/>
        <rect id="Rectangle_59" data-name="Rectangle 59" width="4.837" height="13.021" transform="translate(78.121 64.677)" fill="#c5e6ee"/>
        <rect id="Rectangle_60" data-name="Rectangle 60" width="4.836" height="13.021" transform="translate(66.03 89.417)" fill="#c5e6ee"/>
        <rect id="Rectangle_61" data-name="Rectangle 61" width="4.837" height="13.021" transform="translate(78.121 89.417)" fill="#c5e6ee"/>
      </g>
      <g id="Group_8" data-name="Group 8" transform="translate(97.7 134.937)">
        <path id="Path_23" data-name="Path 23" d="M116.529,171.98H75.667a4.493,4.493,0,0,1-4.493-4.493h0a4.492,4.492,0,0,1,4.493-4.493h40.863a4.492,4.492,0,0,1,4.493,4.493h0A4.493,4.493,0,0,1,116.529,171.98Z" transform="translate(-71.174 -152.345)" fill="#badfff"/>
        <rect id="Rectangle_62" data-name="Rectangle 62" width="31.675" height="8.986" rx="4.493" transform="translate(13.412)" fill="#badfff"/>
      </g>
      <g id="Group_9" data-name="Group 9" transform="translate(330.831 123.45)">
        <path id="Path_24" data-name="Path 24" d="M408.207,122.72h-66.83a7.349,7.349,0,0,1-7.349-7.348h0a7.349,7.349,0,0,1,7.349-7.349h66.83a7.349,7.349,0,0,1,7.348,7.349h0A7.348,7.348,0,0,1,408.207,122.72Z" transform="translate(-317.335 -91.598)" fill="#a2ccff"/>
        <path id="Path_25" data-name="Path 25" d="M361.641,106.145H324.533a7.348,7.348,0,0,1-7.349-7.348h0a7.348,7.348,0,0,1,7.349-7.348h37.108a7.348,7.348,0,0,1,7.349,7.348h0A7.348,7.348,0,0,1,361.641,106.145Z" transform="translate(-317.184 -91.45)" fill="#a2ccff"/>
      </g>
    </g>
    <g id="Group_8905" data-name="Group 8905" transform="translate(-19471 283)">
      <rect id="Rectangle_54-2" data-name="Rectangle 54" width="92.013" height="156.683" transform="translate(277.291 215.65)" fill="#badfff"/>
      <g id="Group_23" data-name="Group 23">
        <path id="Path_9" data-name="Path 9" d="M341.136,207.125v-4.161a.909.909,0,0,0-.909-.909h-3.6a.909.909,0,0,0-.909.909v4.161h-4.671v-4.161a.909.909,0,0,0-.909-.909h-3.6a.909.909,0,0,0-.909.909v4.161h-4.672v-4.161a.908.908,0,0,0-.908-.909h-3.6a.909.909,0,0,0-.909.909v4.161h-4.671v-4.161a.909.909,0,0,0-.909-.909h-3.6a.909.909,0,0,0-.909.909v4.161H271.338v8.525H375.256v-8.525Z" fill="#57a3ff"/>
      </g>
      <g id="Repeat_Grid_323" data-name="Repeat Grid 323" transform="translate(286 223)" clip-path="url(#clip-path)">
        <g transform="translate(-286 -223)">
          <rect id="Rectangle_3880" data-name="Rectangle 3880" width="12" height="12" transform="translate(286 223)" fill="#fff"/>
        </g>
        <g transform="translate(-270 -223)">
          <rect id="Rectangle_3880-2" data-name="Rectangle 3880" width="12" height="12" transform="translate(286 223)" fill="#fff"/>
        </g>
        <g transform="translate(-254 -223)">
          <rect id="Rectangle_3880-3" data-name="Rectangle 3880" width="12" height="12" transform="translate(286 223)" fill="#fff"/>
        </g>
        <g transform="translate(-238 -223)">
          <rect id="Rectangle_3880-4" data-name="Rectangle 3880" width="12" height="12" transform="translate(286 223)" fill="#fff"/>
        </g>
        <g transform="translate(-222 -223)">
          <rect id="Rectangle_3880-5" data-name="Rectangle 3880" width="12" height="12" transform="translate(286 223)" fill="#fff"/>
        </g>
        <g transform="translate(-286 -194)">
          <rect id="Rectangle_3880-6" data-name="Rectangle 3880" width="12" height="12" transform="translate(286 223)" fill="#fff"/>
        </g>
        <g transform="translate(-270 -194)">
          <rect id="Rectangle_3880-7" data-name="Rectangle 3880" width="12" height="12" transform="translate(286 223)" fill="#fff"/>
        </g>
        <g transform="translate(-254 -194)">
          <rect id="Rectangle_3880-8" data-name="Rectangle 3880" width="12" height="12" transform="translate(286 223)" fill="#fff"/>
        </g>
        <g transform="translate(-238 -194)">
          <rect id="Rectangle_3880-9" data-name="Rectangle 3880" width="12" height="12" transform="translate(286 223)" fill="#fff"/>
        </g>
        <g transform="translate(-222 -194)">
          <rect id="Rectangle_3880-10" data-name="Rectangle 3880" width="12" height="12" transform="translate(286 223)" fill="#fff"/>
        </g>
        <g transform="translate(-286 -165)">
          <rect id="Rectangle_3880-11" data-name="Rectangle 3880" width="12" height="12" transform="translate(286 223)" fill="#fff"/>
        </g>
        <g transform="translate(-270 -165)">
          <rect id="Rectangle_3880-12" data-name="Rectangle 3880" width="12" height="12" transform="translate(286 223)" fill="#fff"/>
        </g>
        <g transform="translate(-254 -165)">
          <rect id="Rectangle_3880-13" data-name="Rectangle 3880" width="12" height="12" transform="translate(286 223)" fill="#fff"/>
        </g>
        <g transform="translate(-238 -165)">
          <rect id="Rectangle_3880-14" data-name="Rectangle 3880" width="12" height="12" transform="translate(286 223)" fill="#fff"/>
        </g>
        <g transform="translate(-222 -165)">
          <rect id="Rectangle_3880-15" data-name="Rectangle 3880" width="12" height="12" transform="translate(286 223)" fill="#fff"/>
        </g>
        <g transform="translate(-286 -136)">
          <rect id="Rectangle_3880-16" data-name="Rectangle 3880" width="12" height="12" transform="translate(286 223)" fill="#fff"/>
        </g>
        <g transform="translate(-270 -136)">
          <rect id="Rectangle_3880-17" data-name="Rectangle 3880" width="12" height="12" transform="translate(286 223)" fill="#fff"/>
        </g>
        <g transform="translate(-254 -136)">
          <rect id="Rectangle_3880-18" data-name="Rectangle 3880" width="12" height="12" transform="translate(286 223)" fill="#fff"/>
        </g>
        <g transform="translate(-238 -136)">
          <rect id="Rectangle_3880-19" data-name="Rectangle 3880" width="12" height="12" transform="translate(286 223)" fill="#fff"/>
        </g>
        <g transform="translate(-222 -136)">
          <rect id="Rectangle_3880-20" data-name="Rectangle 3880" width="12" height="12" transform="translate(286 223)" fill="#fff"/>
        </g>
        <g transform="translate(-286 -107)">
          <rect id="Rectangle_3880-21" data-name="Rectangle 3880" width="12" height="12" transform="translate(286 223)" fill="#fff"/>
        </g>
        <g transform="translate(-270 -107)">
          <rect id="Rectangle_3880-22" data-name="Rectangle 3880" width="12" height="12" transform="translate(286 223)" fill="#fff"/>
        </g>
        <g transform="translate(-254 -107)">
          <rect id="Rectangle_3880-23" data-name="Rectangle 3880" width="12" height="12" transform="translate(286 223)" fill="#fff"/>
        </g>
        <g transform="translate(-238 -107)">
          <rect id="Rectangle_3880-24" data-name="Rectangle 3880" width="12" height="12" transform="translate(286 223)" fill="#fff"/>
        </g>
        <g transform="translate(-222 -107)">
          <rect id="Rectangle_3880-25" data-name="Rectangle 3880" width="12" height="12" transform="translate(286 223)" fill="#fff"/>
        </g>
      </g>
    </g>
    <g id="Group_9511" data-name="Group 9511" transform="translate(-19280 269.344)">
      <rect id="Rectangle_54-3" data-name="Rectangle 54" width="99.392" height="169.249" transform="translate(277.768 216.74)" fill="#badfff"/>
      <g id="Group_23-2" data-name="Group 23" transform="translate(271.338 202.055)">
        <path id="Path_9-2" data-name="Path 9" d="M346.734,207.532v-4.495a.982.982,0,0,0-.982-.982h-3.887a.982.982,0,0,0-.982.982v4.495h-5.046v-4.495a.982.982,0,0,0-.982-.982h-3.887a.982.982,0,0,0-.982.982v4.495h-5.047v-4.495a.981.981,0,0,0-.981-.982h-3.887a.982.982,0,0,0-.982.982v4.495h-5.046v-4.495a.982.982,0,0,0-.982-.982h-3.887a.982.982,0,0,0-.982.982v4.495H271.338v9.209H383.59v-9.209Z" transform="translate(-271.338 -202.055)" fill="#57a3ff"/>
      </g>
      <g id="Repeat_Grid_323-2" data-name="Repeat Grid 323" transform="translate(287 224.656)" clip-path="url(#clip-path-2)">
        <g transform="translate(-286 -223)">
          <rect id="Rectangle_3880-26" data-name="Rectangle 3880" width="12" height="12" transform="translate(286 223)" fill="#ebf6ff"/>
        </g>
        <g transform="translate(-270 -223)">
          <rect id="Rectangle_3880-27" data-name="Rectangle 3880" width="12" height="12" transform="translate(286 223)" fill="#ebf6ff"/>
        </g>
        <g transform="translate(-254 -223)">
          <rect id="Rectangle_3880-28" data-name="Rectangle 3880" width="12" height="12" transform="translate(286 223)" fill="#ebf6ff"/>
        </g>
        <g transform="translate(-238 -223)">
          <rect id="Rectangle_3880-29" data-name="Rectangle 3880" width="12" height="12" transform="translate(286 223)" fill="#ebf6ff"/>
        </g>
        <g transform="translate(-222 -223)">
          <rect id="Rectangle_3880-30" data-name="Rectangle 3880" width="12" height="12" transform="translate(286 223)" fill="#ebf6ff"/>
        </g>
        <g transform="translate(-206 -223)">
          <rect id="Rectangle_3880-31" data-name="Rectangle 3880" width="12" height="12" transform="translate(286 223)" fill="#ebf6ff"/>
        </g>
        <g transform="translate(-286 -194)">
          <rect id="Rectangle_3880-32" data-name="Rectangle 3880" width="12" height="12" transform="translate(286 223)" fill="#ebf6ff"/>
        </g>
        <g transform="translate(-270 -194)">
          <rect id="Rectangle_3880-33" data-name="Rectangle 3880" width="12" height="12" transform="translate(286 223)" fill="#ebf6ff"/>
        </g>
        <g transform="translate(-254 -194)">
          <rect id="Rectangle_3880-34" data-name="Rectangle 3880" width="12" height="12" transform="translate(286 223)" fill="#ebf6ff"/>
        </g>
        <g transform="translate(-238 -194)">
          <rect id="Rectangle_3880-35" data-name="Rectangle 3880" width="12" height="12" transform="translate(286 223)" fill="#ebf6ff"/>
        </g>
        <g transform="translate(-222 -194)">
          <rect id="Rectangle_3880-36" data-name="Rectangle 3880" width="12" height="12" transform="translate(286 223)" fill="#ebf6ff"/>
        </g>
        <g transform="translate(-206 -194)">
          <rect id="Rectangle_3880-37" data-name="Rectangle 3880" width="12" height="12" transform="translate(286 223)" fill="#ebf6ff"/>
        </g>
        <g transform="translate(-286 -165)">
          <rect id="Rectangle_3880-38" data-name="Rectangle 3880" width="12" height="12" transform="translate(286 223)" fill="#ebf6ff"/>
        </g>
        <g transform="translate(-270 -165)">
          <rect id="Rectangle_3880-39" data-name="Rectangle 3880" width="12" height="12" transform="translate(286 223)" fill="#ebf6ff"/>
        </g>
        <g transform="translate(-254 -165)">
          <rect id="Rectangle_3880-40" data-name="Rectangle 3880" width="12" height="12" transform="translate(286 223)" fill="#ebf6ff"/>
        </g>
        <g transform="translate(-238 -165)">
          <rect id="Rectangle_3880-41" data-name="Rectangle 3880" width="12" height="12" transform="translate(286 223)" fill="#ebf6ff"/>
        </g>
        <g transform="translate(-222 -165)">
          <rect id="Rectangle_3880-42" data-name="Rectangle 3880" width="12" height="12" transform="translate(286 223)" fill="#ebf6ff"/>
        </g>
        <g transform="translate(-206 -165)">
          <rect id="Rectangle_3880-43" data-name="Rectangle 3880" width="12" height="12" transform="translate(286 223)" fill="#ebf6ff"/>
        </g>
        <g transform="translate(-286 -136)">
          <rect id="Rectangle_3880-44" data-name="Rectangle 3880" width="12" height="12" transform="translate(286 223)" fill="#ebf6ff"/>
        </g>
        <g transform="translate(-270 -136)">
          <rect id="Rectangle_3880-45" data-name="Rectangle 3880" width="12" height="12" transform="translate(286 223)" fill="#ebf6ff"/>
        </g>
        <g transform="translate(-254 -136)">
          <rect id="Rectangle_3880-46" data-name="Rectangle 3880" width="12" height="12" transform="translate(286 223)" fill="#ebf6ff"/>
        </g>
        <g transform="translate(-238 -136)">
          <rect id="Rectangle_3880-47" data-name="Rectangle 3880" width="12" height="12" transform="translate(286 223)" fill="#ebf6ff"/>
        </g>
        <g transform="translate(-222 -136)">
          <rect id="Rectangle_3880-48" data-name="Rectangle 3880" width="12" height="12" transform="translate(286 223)" fill="#ebf6ff"/>
        </g>
        <g transform="translate(-206 -136)">
          <rect id="Rectangle_3880-49" data-name="Rectangle 3880" width="12" height="12" transform="translate(286 223)" fill="#ebf6ff"/>
        </g>
        <g transform="translate(-286 -107)">
          <rect id="Rectangle_3880-50" data-name="Rectangle 3880" width="12" height="12" transform="translate(286 223)" fill="#ebf6ff"/>
        </g>
        <g transform="translate(-270 -107)">
          <rect id="Rectangle_3880-51" data-name="Rectangle 3880" width="12" height="12" transform="translate(286 223)" fill="#ebf6ff"/>
        </g>
        <g transform="translate(-254 -107)">
          <rect id="Rectangle_3880-52" data-name="Rectangle 3880" width="12" height="12" transform="translate(286 223)" fill="#ebf6ff"/>
        </g>
        <g transform="translate(-238 -107)">
          <rect id="Rectangle_3880-53" data-name="Rectangle 3880" width="12" height="12" transform="translate(286 223)" fill="#ebf6ff"/>
        </g>
        <g transform="translate(-222 -107)">
          <rect id="Rectangle_3880-54" data-name="Rectangle 3880" width="12" height="12" transform="translate(286 223)" fill="#ebf6ff"/>
        </g>
        <g transform="translate(-206 -107)">
          <rect id="Rectangle_3880-55" data-name="Rectangle 3880" width="12" height="12" transform="translate(286 223)" fill="#ebf6ff"/>
        </g>
        <g transform="translate(-286 -78)">
          <rect id="Rectangle_3880-56" data-name="Rectangle 3880" width="12" height="12" transform="translate(286 223)" fill="#ebf6ff"/>
        </g>
        <g transform="translate(-270 -78)">
          <rect id="Rectangle_3880-57" data-name="Rectangle 3880" width="12" height="12" transform="translate(286 223)" fill="#ebf6ff"/>
        </g>
        <g transform="translate(-254 -78)">
          <rect id="Rectangle_3880-58" data-name="Rectangle 3880" width="12" height="12" transform="translate(286 223)" fill="#ebf6ff"/>
        </g>
        <g transform="translate(-238 -78)">
          <rect id="Rectangle_3880-59" data-name="Rectangle 3880" width="12" height="12" transform="translate(286 223)" fill="#ebf6ff"/>
        </g>
        <g transform="translate(-222 -78)">
          <rect id="Rectangle_3880-60" data-name="Rectangle 3880" width="12" height="12" transform="translate(286 223)" fill="#ebf6ff"/>
        </g>
        <g transform="translate(-206 -78)">
          <rect id="Rectangle_3880-61" data-name="Rectangle 3880" width="12" height="12" transform="translate(286 223)" fill="#ebf6ff"/>
        </g>
      </g>
    </g>
    <g id="Group_9510" data-name="Group 9510" transform="translate(-19377 300.407)">
      <rect id="Rectangle_54-4" data-name="Rectangle 54" width="82.607" height="140.666" transform="translate(276.682 214.26)" fill="#a2ccff"/>
      <g id="Group_23-3" data-name="Group 23" transform="translate(271.338 202.055)">
        <path id="Path_9-3" data-name="Path 9" d="M334,206.607v-3.736a.816.816,0,0,0-.816-.816h-3.23a.816.816,0,0,0-.816.816v3.736h-4.194v-3.736a.816.816,0,0,0-.816-.816H320.9a.816.816,0,0,0-.816.816v3.736h-4.194v-3.736a.815.815,0,0,0-.815-.816h-3.23a.816.816,0,0,0-.816.816v3.736h-4.193v-3.736a.816.816,0,0,0-.816-.816h-3.23a.816.816,0,0,0-.816.816v3.736H271.338v7.654h93.295v-7.654Z" transform="translate(-271.338 -202.055)" fill="#57a3ff"/>
      </g>
      <g id="Repeat_Grid_323-3" data-name="Repeat Grid 323" transform="translate(285 220.593)" clip-path="url(#clip-path-3)">
        <g transform="translate(-286 -223)">
          <rect id="Rectangle_3880-62" data-name="Rectangle 3880" width="12" height="12" transform="translate(286 223)" fill="#fff"/>
        </g>
        <g transform="translate(-268 -223)">
          <rect id="Rectangle_3880-63" data-name="Rectangle 3880" width="12" height="12" transform="translate(286 223)" fill="#fff"/>
        </g>
        <g transform="translate(-250 -223)">
          <rect id="Rectangle_3880-64" data-name="Rectangle 3880" width="12" height="12" transform="translate(286 223)" fill="#fff"/>
        </g>
        <g transform="translate(-232 -223)">
          <rect id="Rectangle_3880-65" data-name="Rectangle 3880" width="12" height="12" transform="translate(286 223)" fill="#fff"/>
        </g>
        <g transform="translate(-286 -194)">
          <rect id="Rectangle_3880-66" data-name="Rectangle 3880" width="12" height="12" transform="translate(286 223)" fill="#fff"/>
        </g>
        <g transform="translate(-268 -194)">
          <rect id="Rectangle_3880-67" data-name="Rectangle 3880" width="12" height="12" transform="translate(286 223)" fill="#fff"/>
        </g>
        <g transform="translate(-250 -194)">
          <rect id="Rectangle_3880-68" data-name="Rectangle 3880" width="12" height="12" transform="translate(286 223)" fill="#fff"/>
        </g>
        <g transform="translate(-232 -194)">
          <rect id="Rectangle_3880-69" data-name="Rectangle 3880" width="12" height="12" transform="translate(286 223)" fill="#fff"/>
        </g>
        <g transform="translate(-286 -165)">
          <rect id="Rectangle_3880-70" data-name="Rectangle 3880" width="12" height="12" transform="translate(286 223)" fill="#fff"/>
        </g>
        <g transform="translate(-268 -165)">
          <rect id="Rectangle_3880-71" data-name="Rectangle 3880" width="12" height="12" transform="translate(286 223)" fill="#fff"/>
        </g>
        <g transform="translate(-250 -165)">
          <rect id="Rectangle_3880-72" data-name="Rectangle 3880" width="12" height="12" transform="translate(286 223)" fill="#fff"/>
        </g>
        <g transform="translate(-232 -165)">
          <rect id="Rectangle_3880-73" data-name="Rectangle 3880" width="12" height="12" transform="translate(286 223)" fill="#fff"/>
        </g>
        <g transform="translate(-286 -136)">
          <rect id="Rectangle_3880-74" data-name="Rectangle 3880" width="12" height="12" transform="translate(286 223)" fill="#fff"/>
        </g>
        <g transform="translate(-268 -136)">
          <rect id="Rectangle_3880-75" data-name="Rectangle 3880" width="12" height="12" transform="translate(286 223)" fill="#fff"/>
        </g>
        <g transform="translate(-250 -136)">
          <rect id="Rectangle_3880-76" data-name="Rectangle 3880" width="12" height="12" transform="translate(286 223)" fill="#fff"/>
        </g>
        <g transform="translate(-232 -136)">
          <rect id="Rectangle_3880-77" data-name="Rectangle 3880" width="12" height="12" transform="translate(286 223)" fill="#fff"/>
        </g>
        <g transform="translate(-286 -107)">
          <rect id="Rectangle_3880-78" data-name="Rectangle 3880" width="12" height="12" transform="translate(286 223)" fill="#fff"/>
        </g>
        <g transform="translate(-268 -107)">
          <rect id="Rectangle_3880-79" data-name="Rectangle 3880" width="12" height="12" transform="translate(286 223)" fill="#fff"/>
        </g>
        <g transform="translate(-250 -107)">
          <rect id="Rectangle_3880-80" data-name="Rectangle 3880" width="12" height="12" transform="translate(286 223)" fill="#fff"/>
        </g>
        <g transform="translate(-232 -107)">
          <rect id="Rectangle_3880-81" data-name="Rectangle 3880" width="12" height="12" transform="translate(286 223)" fill="#fff"/>
        </g>
      </g>
    </g>
    <g id="Group_9523" data-name="Group 9523" transform="translate(-19545.783 304.435)">
      <path id="Path_104" data-name="Path 104" d="M330.585,256.8c-19.642,19.641-22.139,41.733-19.965,52.6,2.3,11.518,15.741,19.581,29.563,18.813,12.267-.681,26.108-6.911,24.957-26.875s-11.519-37.628-18.429-44.538C340.138,250.225,336.728,250.655,330.585,256.8Z" transform="translate(0 0)" fill="#a2ccff"/>
      <path id="Path_105" data-name="Path 105" d="M325.384,260.975c-14.874,18.064-16.729,37.056-14.765,46.877,2.3,11.518,15.742,19.581,29.565,18.813,11.3-.627,23.918-5.969,24.946-22.4C339.736,330.113,311.9,301.458,325.384,260.975Z" transform="translate(0 1.546)" fill="#197cf4" opacity="0.696"/>
      <g id="Group_51" data-name="Group 51" transform="translate(327.309 295.43)">
        <path id="Path_106" data-name="Path 106" d="M334.166,289.036l-1.994,55.46h3.262Z" transform="translate(-323.473 -289.036)" fill="#0d5ba7"/>
        <path id="Path_107" data-name="Path 107" d="M324.755,302.326l10.15,14.318.362-3.262Z" transform="translate(-324.755 -286.739)" fill="#0d5ba7"/>
        <path id="Path_108" data-name="Path 108" d="M333.718,306.141v2.487l10.331-8.156Z" transform="translate(-323.206 -287.06)" fill="#0d5ba7"/>
      </g>
    </g>
    <g id="Group_9525" data-name="Group 9525" transform="translate(-19507.783 342.099)">
      <path id="Path_104-2" data-name="Path 104" d="M322.732,254.981c-12.159,12.158-13.7,25.834-12.359,32.561,1.426,7.13,9.744,12.121,18.3,11.645,7.594-.422,16.162-4.278,15.449-16.637s-7.131-23.292-11.408-27.57C328.646,250.912,326.534,251.178,322.732,254.981Z" transform="translate(0 0)" fill="#a2ccff"/>
      <path id="Path_105-2" data-name="Path 105" d="M319.512,260.975c-9.208,11.182-10.355,22.939-9.14,29.018,1.427,7.13,9.745,12.121,18.3,11.645,6.993-.388,14.806-3.7,15.442-13.866C328.4,303.773,311.166,286.035,319.512,260.975Z" transform="translate(0 -2.452)" fill="#197cf4" opacity="0.685"/>
      <g id="Group_51-2" data-name="Group 51" transform="translate(320.704 278.895)">
        <path id="Path_106-2" data-name="Path 106" d="M333.406,289.036l-1.234,34.331h2.019Z" transform="translate(-326.787 -289.036)" fill="#0d5ba7"/>
        <path id="Path_107-2" data-name="Path 107" d="M324.755,302.326l6.283,8.863.224-2.019Z" transform="translate(-324.755 -292.678)" fill="#0d5ba7"/>
        <path id="Path_108-2" data-name="Path 108" d="M333.718,303.981v1.539l6.395-5.049Z" transform="translate(-327.211 -292.17)" fill="#0d5ba7"/>
      </g>
    </g>
    <g id="Group_9524" data-name="Group 9524" transform="translate(-19235.932 280.902)">
      <path id="Path_104-3" data-name="Path 104" d="M335.492,257.933c-24.317,24.316-27.409,51.668-24.718,65.122,2.852,14.26,19.488,24.242,36.6,23.291,15.187-.844,32.323-8.556,30.9-33.273s-14.261-46.585-22.816-55.139C347.319,249.8,343.1,250.328,335.492,257.933Z" transform="translate(0 0)" fill="#a2ccff"/>
      <path id="Path_105-3" data-name="Path 105" d="M329.052,260.975c-18.415,22.364-20.711,45.877-18.28,58.036,2.853,14.26,19.49,24.242,36.6,23.291,13.985-.777,29.611-7.391,30.885-27.732C346.821,346.571,312.361,311.1,329.052,260.975Z" transform="translate(0 4.044)" fill="#197cf4" opacity="0.702"/>
      <g id="Group_51-3" data-name="Group 51" transform="translate(331.436 305.762)">
        <path id="Path_106-3" data-name="Path 106" d="M334.641,289.036,332.172,357.7h4.039Z" transform="translate(-321.402 -289.036)" fill="#0d5ba7"/>
        <path id="Path_107-3" data-name="Path 107" d="M324.755,302.326l12.566,17.726.449-4.039Z" transform="translate(-324.755 -283.029)" fill="#0d5ba7"/>
        <path id="Path_108-3" data-name="Path 108" d="M333.718,307.49v3.079l12.79-10.1Z" transform="translate(-320.703 -283.867)" fill="#0d5ba7"/>
      </g>
    </g>
  </g>
</svg>
