<svg xmlns="http://www.w3.org/2000/svg" width="116.519" height="28" viewBox="0 0 116.519 28">
  <g id="Group_12936" data-name="Group 12936" transform="translate(-61 -1129)">
    <g id="Group_12782" data-name="Group 12782" transform="translate(61 1129)">
      <path id="Path_43159" data-name="Path 43159" d="M5.273-7.116H2.426v4.08H1.591v-9.8H4.775a3.632,3.632,0,0,1,2.45.761A2.659,2.659,0,0,1,8.107-9.95a2.658,2.658,0,0,1-.552,1.663,2.823,2.823,0,0,1-1.481,1l2.45,4.167v.088H7.643ZM2.426-7.823H4.964A2.354,2.354,0,0,0,6.64-8.415,2.007,2.007,0,0,0,7.273-9.95a2.016,2.016,0,0,0-.66-1.609,2.737,2.737,0,0,0-1.851-.572H2.426Zm13.35.088H11.191v4h5.271v.7h-6.1v-9.8h6.066v.707H11.191v3.7h4.584ZM23.5-5.783h-4.45l-1.01,2.747h-.868l3.709-9.8h.788l3.709,9.8h-.862ZM19.3-6.49h3.931l-1.966-5.338ZM27.65-3.736h4.84v.7H26.816v-9.8h.835Zm11.6-1.319H35.709l-.673,2.02H32.888l3.649-9.8h1.871l3.669,9.8H39.929Zm-3-1.636H38.7l-1.232-3.669ZM50.606-4.275a3.505,3.505,0,0,1-1.542,1.013,6.456,6.456,0,0,1-2.208.36,4.374,4.374,0,0,1-2.232-.555,3.7,3.7,0,0,1-1.481-1.612,5.675,5.675,0,0,1-.535-2.484V-8.22a6.026,6.026,0,0,1,.495-2.541A3.66,3.66,0,0,1,44.531-12.4a4.111,4.111,0,0,1,2.185-.569,4.094,4.094,0,0,1,2.726.831,3.553,3.553,0,0,1,1.165,2.42H48.641a1.954,1.954,0,0,0-.6-1.232,1.9,1.9,0,0,0-1.269-.39,1.791,1.791,0,0,0-1.569.774,4.071,4.071,0,0,0-.545,2.3v.626a3.875,3.875,0,0,0,.586,2.329,2.006,2.006,0,0,0,1.717.788,2.24,2.24,0,0,0,1.622-.485V-6.7H46.749V-8.186h3.857ZM58.14-7.284H54.262v2.625h4.551v1.622h-6.57v-9.8H58.8V-11.2H54.262v2.336H58.14Zm9.829,4.248h-2.02L62.017-9.485v6.449H60v-9.8h2.02l3.938,6.463v-6.463h2.013ZM76.915-11.2h-3v8.166h-2.02V-11.2H68.931v-1.636h7.984Z" transform="translate(32.049 22.589)" fill="#fff"/>
      <path id="Path_42961" data-name="Path 42961" d="M37.109,313.086l-14.6,9.243v18.757h29.2V322.329Zm3.416,8.94.482.744L24.294,333.505v-3.7l12.036-7.73.482.744,1.628-3.158-3.558.173.481.744-11.068,7.108v-4.377l12.816-8.113,12.816,8.113v.12L24.294,339.181v-3.557l17.682-11.357.481.744,1.628-3.158Z" transform="translate(-22.507 -313.086)" fill="#fff"/>
      <line id="Line_1131" data-name="Line 1131" x2="73.614" transform="translate(33.81 27.395)" fill="#58595b" stroke="#fff" stroke-miterlimit="10" stroke-width="1"/>
      <path id="Path_43160" data-name="Path 43160" d="M.492-1.432a.435.435,0,0,1,.139-.335A.494.494,0,0,1,.98-1.9a.5.5,0,0,1,.352.129.435.435,0,0,1,.139.335.429.429,0,0,1-.138.331A.5.5,0,0,1,.98-.975.5.5,0,0,1,.63-1.1.429.429,0,0,1,.492-1.432Zm2.947-.631.6-2.181h.9L3.852-1.008H3.026L1.934-4.245h.9ZM6.12-4.245l.027.374A1.13,1.13,0,0,1,7.078-4.3a.939.939,0,0,1,.766.3,1.41,1.41,0,0,1,.257.9v2.091H7.236v-2.07a.561.561,0,0,0-.12-.4.536.536,0,0,0-.4-.124.6.6,0,0,0-.548.311v2.283H5.306V-4.245Z" transform="translate(108.418 26.485)" fill="#fff"/>
    </g>
  </g>
</svg>
