<svg xmlns="http://www.w3.org/2000/svg" width="12.675" height="11.988" viewBox="0 0 12.675 11.988"><defs><style>.a{fill:#197cf4;}</style></defs><g transform="translate(6500.912 4462.262)"><path class="a" d="M87.637,184.761a.813.813,0,0,0,0-1.125l-2.777-2.815a.827.827,0,0,0-1.125,0l-2.777,2.815a.778.778,0,0,0,0,1.125.769.769,0,0,0,1.125,0l1.412-1.439v8.43a.793.793,0,0,0,1.586,0v-8.446l1.427,1.454A.782.782,0,0,0,87.637,184.761Z" transform="translate(-6581.63 -4642.838)"/><path class="a" d="M229.463,187.785l-1.412,1.439v-8.43a.793.793,0,1,0-1.586,0v8.446l-1.427-1.454a.778.778,0,0,0-1.125,0,.813.813,0,0,0,0,1.125l2.777,2.815a.734.734,0,0,0,1.125,0l2.777-2.815a.8.8,0,1,0-1.129-1.125Z" transform="translate(-6719.07 -4642.262)"/></g></svg>