<svg width="21" height="22" fill="none" xmlns="http://www.w3.org/2000/svg"><path d="M19.721 5.232c-.666.31-1.379.52-2.13.617a3.893 3.893 0 001.632-2.164 7.145 7.145 0 01-2.356.95c-.678-.764-1.643-1.24-2.708-1.24-2.05 0-3.708 1.752-3.708 3.912 0 .307.03.606.096.892C7.463 8.038 4.728 6.48 2.9 4.11a4.076 4.076 0 00-.502 1.967c0 1.356.655 2.555 1.651 3.258a3.48 3.48 0 01-1.681-.489v.049c0 1.898 1.279 3.476 2.976 3.836-.31.088-.64.137-.977.137-.237 0-.471-.024-.697-.073.471 1.555 1.842 2.685 3.467 2.718a7.198 7.198 0 01-4.609 1.675c-.298 0-.593-.02-.884-.056a10.008 10.008 0 005.68 1.768c6.827 0 10.558-5.963 10.558-11.136 0-.17-.004-.339-.012-.504a7.855 7.855 0 001.85-2.027z" fill="#F6AB27"/></svg>