<svg width="18" height="18" fill="none" xmlns="http://www.w3.org/2000/svg"><path d="M15.67 1.059h-1.588v1.588a.53.53 0 01-1.059 0V1.059h-8.47v1.588a.53.53 0 01-1.059 0V1.059H1.906c-.794 0-1.377.688-1.377 1.588v1.906h16.942V2.647c0-.9-.954-1.588-1.8-1.588zM.53 5.664v9.689c0 .953.582 1.588 1.429 1.588h13.764c.847 0 1.8-.688 1.8-1.588V5.664H.53zm4.71 8.896H3.97a.418.418 0 01-.424-.424v-1.323c0-.212.159-.424.423-.424h1.324c.212 0 .424.159.424.424v1.323c-.053.265-.212.424-.477.424zm0-4.765H3.97a.418.418 0 01-.424-.424V8.047c0-.212.159-.424.423-.424h1.324c.212 0 .424.16.424.424V9.37c-.053.265-.212.424-.477.424zm4.235 4.765H8.153a.418.418 0 01-.424-.424v-1.323c0-.212.16-.424.424-.424h1.323c.212 0 .424.159.424.424v1.323c0 .265-.159.424-.424.424zm0-4.765H8.153a.418.418 0 01-.424-.424V8.047c0-.212.16-.424.424-.424h1.323c.212 0 .424.16.424.424V9.37c0 .265-.159.424-.424.424zm4.236 4.765h-1.324a.418.418 0 01-.423-.424v-1.323c0-.212.158-.424.423-.424h1.324c.211 0 .423.159.423.424v1.323c0 .265-.159.424-.423.424zm0-4.765h-1.324a.418.418 0 01-.423-.424V8.047c0-.212.158-.424.423-.424h1.324c.211 0 .423.16.423.424V9.37c0 .265-.159.424-.423.424z" fill="#1D2D47"/></svg>