<svg width="14" height="14" fill="none" xmlns="http://www.w3.org/2000/svg"><g clip-path="url(#clip0_491_5402)" fill="#fff"><path d="M10.616 0H3.384A2.57 2.57 0 00.816 2.567v2.1a.712.712 0 001.4 0v-2.1A1.17 1.17 0 013.384 1.4h7.232a1.17 1.17 0 011.168 1.167v8.865a1.17 1.17 0 01-1.168 1.168H3.384a1.17 1.17 0 01-1.168-1.168v-2.1a.7.7 0 10-1.4 0v2.1A2.57 2.57 0 003.384 14h7.232a2.57 2.57 0 002.568-2.568V2.567A2.57 2.57 0 0010.616 0z"/><path d="M.816 6.999a.712.712 0 00.712.712h5.883L5.799 9.303a.712.712 0 00.99.992l2.807-2.8a.712.712 0 000-.992l-2.8-2.8a.712.712 0 00-.997.992l1.607 1.604H1.528a.712.712 0 00-.712.7z"/></g><defs><clipPath id="clip0_491_5402"><path fill="#fff" d="M0 0h14v14H0z"/></clipPath></defs></svg>