<svg width="52" height="38" fill="none" xmlns="http://www.w3.org/2000/svg"><path d="M42.111 13.544C41.4 6.129 35.226.31 27.625.31c-5.881 0-10.917 3.49-13.238 8.5-.699-.223-1.427-.374-2.199-.374a7.314 7.314 0 00-7.313 7.313c0 .803.161 1.562.4 2.282C2.134 19.862 0 23.225 0 27.12c0 5.835 4.729 10.564 10.563 10.564v.003h29.25v-.003C46.548 37.685 52 32.229 52 25.496c0-5.941-4.258-10.876-9.889-11.952zm-9.968 9.355H29.25v6.52c0 .899-.725 1.629-1.625 1.629h-3.25c-.897 0-1.625-.73-1.625-1.629V22.9h-2.895c-1.764 0-2.484-1.178-1.604-2.614l6.145-6.057c1.204-1.203 1.966-1.243 3.208 0l6.145 6.057c.883 1.438.159 2.614-1.606 2.614z" fill="#fff"/></svg>