<svg width="21" height="22" fill="none" xmlns="http://www.w3.org/2000/svg"><path d="M10.496 6.605c-2.421 0-4.428 2.079-4.428 4.667 0 2.59 1.972 4.667 4.428 4.667s4.428-2.114 4.428-4.667c0-2.552-2.007-4.667-4.428-4.667zm0 7.657c-1.557 0-2.836-1.349-2.836-2.99 0-1.64 1.28-2.99 2.836-2.99 1.556 0 2.836 1.35 2.836 2.99 0 1.641-1.28 2.99-2.836 2.99zm4.601-6.71c.554 0 1.003-.473 1.003-1.057s-.45-1.058-1.003-1.058c-.554 0-1.003.474-1.003 1.058 0 .584.449 1.057 1.003 1.057z" fill="#F6AB27"/><path d="M17.691 3.76c-.9-.984-2.179-1.494-3.632-1.494H6.934c-3.01 0-5.016 2.114-5.016 5.286v7.475c0 1.568.484 2.917 1.453 3.9.934.949 2.179 1.423 3.597 1.423h7.057c1.487 0 2.732-.51 3.632-1.422.933-.948 1.418-2.297 1.418-3.865v-7.51c0-1.532-.485-2.845-1.384-3.793zm-.138 11.303c0 1.13-.38 2.042-1.003 2.662-.623.62-1.488.948-2.525.948H6.968c-1.038 0-1.902-.328-2.525-.948-.623-.657-.934-1.568-.934-2.698V7.552c0-1.093.311-2.005.934-2.661.588-.62 1.487-.948 2.525-.948h7.126c1.038 0 1.902.328 2.525.984.588.657.934 1.568.934 2.625v7.511z" fill="#F6AB27"/></svg>