<svg xmlns="http://www.w3.org/2000/svg" width="820" height="196" viewBox="0 0 820 196" fill="none" class="mdl-js">
    <path d="M410 38V181.5" stroke="#F58926" stroke-width="4"/>
    <path d="M422 184C422 177.383 416.617 172 410 172C403.383 172 398 177.383 398 184C398 190.617 403.383 196 410 196C416.617 196 422 190.617 422 184Z" fill="#F58926"/>
    <path d="M377 0.5V47.5C377 58.5457 368.046 67.5 357 67.5H32C20.9543 67.5 12 76.4543 12 87.5V123" stroke="#F58926" stroke-width="4"/>
    <path d="M0 125C0 118.383 5.38345 113 12 113C18.6166 113 24 118.383 24 125C24 131.617 18.6166 137 12 137C5.38345 137 0 131.617 0 125Z" fill="#F58926"/>
    <path d="M443 0.5V47.5C443 58.5457 451.954 67.5 463 67.5H788C799.046 67.5 808 76.4543 808 87.5V123" stroke="#F58926" stroke-width="4"/>
    <path d="M820 125C820 118.383 814.617 113 808 113C801.383 113 796 118.383 796 125C796 131.617 801.383 137 808 137C814.617 137 820 131.617 820 125Z" fill="#F58926"/>
    <defs>
        <linearGradient id="paint0_linear_14_9" x1="445" y1="1229" x2="437.469" y2="1228.98" gradientUnits="userSpaceOnUse">
            <stop stop-color="#10BDE3"/>
            <stop offset="0.9813" stop-color="#3C73FF"/>
        </linearGradient>
        <linearGradient id="paint1_linear_14_9" x1="436.485" y1="81.7327" x2="345.873" y2="106.789" gradientUnits="userSpaceOnUse">
            <stop stop-color="#10BDE3"/>
            <stop offset="0.9813" stop-color="#573CFF"/>
        </linearGradient>
        <linearGradient id="paint2_linear_14_9" x1="-208.291" y1="-460.239" x2="675.311" y2="267.778" gradientUnits="userSpaceOnUse">
            <stop stop-color="#10BDE3"/>
            <stop offset="0.9813" stop-color="#573CFF"/>
        </linearGradient>
        <linearGradient id="paint3_linear_14_9" x1="-14.4849" y1="22.7327" x2="76.1272" y2="47.7888" gradientUnits="userSpaceOnUse">
            <stop stop-color="#10BDE3"/>
            <stop offset="0.9813" stop-color="#573CFF"/>
        </linearGradient>
        <linearGradient id="paint4_linear_14_9" x1="1028.29" y1="-460.239" x2="144.689" y2="267.778" gradientUnits="userSpaceOnUse">
            <stop stop-color="#10BDE3"/>
            <stop offset="0.9813" stop-color="#573CFF"/>
        </linearGradient>
        <linearGradient id="paint5_linear_14_9" x1="834.485" y1="22.7327" x2="743.873" y2="47.7888" gradientUnits="userSpaceOnUse">
            <stop stop-color="#10BDE3"/>
            <stop offset="0.9813" stop-color="#573CFF"/>
        </linearGradient>
    </defs>
</svg>