<svg xmlns="http://www.w3.org/2000/svg" width="419" height="346" viewBox="0 0 419 346" fill="none" class="mdl-js">
    <g filter="url(#filter0_d_148_7636)">
        <path d="M207.216 290.234C280.462 290.234 339.839 230.859 339.839 157.617C339.839 84.3746 280.462 25 207.216 25C133.971 25 74.5938 84.3746 74.5938 157.617C74.5938 230.859 133.971 290.234 207.216 290.234Z" fill="white"/>
    </g>
    <path d="M207.216 285.038C277.592 285.038 334.643 227.99 334.643 157.617C334.643 87.2442 277.592 30.1958 207.216 30.1958C136.84 30.1958 79.7896 87.2442 79.7896 157.617C79.7896 227.99 136.84 285.038 207.216 285.038Z" fill="url(#paint0_linear_148_7636)"/>
    <g clip-path="url(#clip0_148_7636)">
        <path fill-rule="evenodd" clip-rule="evenodd" d="M209.562 90.5595C209.609 90.5753 209.829 90.5911 210.097 90.3696C210.459 90.0847 210.475 90.3696 211.23 89.9898C211.718 89.7366 212.175 89.4676 212.678 89.2302L212.332 89.4676C213.324 89.1985 213.702 88.882 214.284 88.8029C215.134 88.6763 215.701 89.0086 216.173 89.4676C215.905 88.8346 215.433 88.2965 214.788 88.1699C214.788 88.1699 215.039 88.1541 215.197 88.1699C214.992 88.0908 214.725 88.0275 214.111 87.98C212.946 87.8851 212.096 87.9642 211.057 88.5181C210.711 88.708 210.491 88.9295 210.128 89.1827C210.223 89.0719 210.38 88.9137 210.648 88.708C210.302 88.8187 210.034 88.9137 209.704 89.2302L209.766 89.0245C209.515 89.2144 209.389 89.4201 209.31 89.5942C209.121 90.0847 209.216 90.417 209.562 90.5595Z" fill="url(#paint1_linear_148_7636)"/>
        <path fill-rule="evenodd" clip-rule="evenodd" d="M203.219 115.974C200.464 118.173 199.189 119.328 196.923 118.585C194.924 117.936 193.255 116.654 189.761 116.812C192.736 117.604 194.089 118.537 196.498 119.518C199.787 120.832 200.779 118.98 203.219 115.974Z" fill="url(#paint2_linear_148_7636)"/>
        <path fill-rule="evenodd" clip-rule="evenodd" d="M218.487 119.518C220.895 118.553 222.249 117.604 225.224 116.812C221.745 116.654 220.061 117.92 218.062 118.585C215.795 119.328 214.504 118.173 211.766 115.974C214.221 118.98 215.213 120.832 218.487 119.518Z" fill="url(#paint3_linear_148_7636)"/>
        <path fill-rule="evenodd" clip-rule="evenodd" d="M262.748 107.682C262.638 107.334 262.512 106.875 262.37 106.257C261.064 100.608 258.766 96.2088 255.744 92.3475C252.737 88.5021 248.991 85.1948 244.773 81.6659C244.253 81.1278 243.844 80.748 243.419 80.4157C242.994 80.0834 242.569 79.7985 241.971 79.4187C241.184 78.9282 240.224 78.406 239.185 78.1686C238.178 77.9312 237.091 77.9312 236.037 78.406C235.58 78.2002 235.187 78.1211 234.809 78.1528C234.447 78.1844 234.117 78.2952 233.77 78.4693C233.204 78.1528 232.747 78.042 232.275 78.1053C231.85 78.1686 231.456 78.3585 231.016 78.675C230.544 78.4376 230.071 78.406 229.646 78.5009C229.017 78.6275 228.497 79.0231 228.182 79.4662C227.6 80.2575 226.908 81.2228 226.388 82.1722C225.837 83.185 225.491 84.1978 225.648 85.0523C225.79 85.7645 226.278 86.2708 227.175 87.2045C227.38 87.426 227.616 87.6634 227.899 87.9641C227.033 91.0974 230.276 91.7937 232.322 89.3408C232.511 89.1035 232.7 88.8819 232.92 88.7078C233.408 88.7395 233.723 88.7553 234.038 88.7237C234.384 88.692 234.715 88.6287 235.234 88.4863C236.289 88.5338 236.619 88.4388 237.532 88.1698L237.753 88.1065C238.382 87.9957 238.697 87.7267 238.949 87.521C239.043 87.4419 239.122 87.3786 239.232 87.4419C241.026 88.2806 241.955 91.2715 243.01 94.7054C243.907 97.633 244.899 100.861 246.661 103.504C243.97 102.934 241.813 103.187 240.082 104.184C238.193 105.26 236.855 107.191 235.927 109.85C233.345 108.995 230.717 108.979 228.261 109.628C225.633 110.34 223.193 111.828 221.147 113.917C219.195 113.299 217.495 113.157 216.739 111.021C216.251 109.66 216.299 106.178 216.409 104.612C216.44 104.548 216.472 104.485 216.487 104.438C216.834 103.536 216.881 102.634 216.912 101.573C216.944 100.909 216.975 100.181 217.086 99.3737C217.101 99.2155 217.133 99.0414 217.164 98.8831L217.212 98.6932C217.275 98.6774 217.353 98.6458 217.4 98.6141C217.589 98.5192 217.747 98.3609 217.841 98.2027C218.03 97.8862 218.203 97.6172 218.376 97.364C218.99 96.4303 219.494 95.6707 219.525 94.3573C219.541 93.8034 219.462 93.392 219.399 93.0438C219.352 92.8065 219.321 92.5849 219.321 92.4108C219.321 92.3159 219.336 92.1418 219.352 91.9994C219.415 91.2082 219.478 90.5277 218.927 90.2112C218.99 89.7048 219.085 89.1984 219.179 88.6604C219.274 88.1223 218.927 87.5843 218.974 87.0304C219.085 85.8594 219.636 84.6567 219.384 83.1376C219.226 82.1248 218.581 80.479 218.172 79.1497C218.849 80.3524 219.022 80.6214 219.336 81.9507C218.896 78.8807 219.321 77.8046 216.661 76.3329C216.991 76.1747 217.337 76.0323 217.668 75.8898C216.897 75.9848 216.519 76.0481 215.732 76.0006C216.346 75.6841 216.519 75.2568 216.141 74.3707C215.858 76.2696 211.797 73.9909 210.632 73.4845C208.853 72.8198 207.563 72.4717 205.989 71.4114L206.555 72.3135C205.784 72.0603 205.17 71.9653 204.73 71C204.541 72.0761 205.06 72.4084 205.642 72.9464C204.289 73.1838 201.975 73.5003 200.59 72.1236C200.747 73.0889 200.779 72.9939 201.235 73.8168C199.457 74.5289 198.229 74.8771 197.206 77.0609C197.725 76.7602 198.276 76.3646 199 76.4595C197.552 78.4693 195.679 79.3238 194.624 81.3494C195.175 80.748 195.569 80.4632 196.104 80.3841C195.726 81.0012 195.506 81.4443 195.207 82.1089L196.214 81.5867C195.994 82.6628 195.742 88.0432 196.041 90.1954C195.459 90.5119 195.522 91.1765 195.6 91.9836C195.616 92.1418 195.632 92.3001 195.632 92.395C195.647 92.5691 195.6 92.7748 195.553 93.028C195.49 93.392 195.411 93.8034 195.427 94.3414C195.474 95.6549 195.978 96.4145 196.576 97.3481C196.749 97.6013 196.922 97.8862 197.111 98.1869C197.206 98.3451 197.363 98.4875 197.552 98.5983C197.615 98.6299 197.678 98.6616 197.741 98.6774C197.946 99.6427 198.008 100.576 198.04 101.558C198.087 102.618 198.119 103.52 198.465 104.422C198.528 104.596 198.638 104.77 198.764 104.944C198.748 109.992 199.032 112.492 193.822 113.901C191.791 111.796 189.336 110.309 186.707 109.596C184.252 108.932 181.623 108.963 179.042 109.818C178.113 107.159 176.759 105.229 174.886 104.153C173.155 103.172 170.998 102.918 168.307 103.472C170.07 100.83 171.061 97.6013 171.958 94.6738C173.013 91.2398 173.926 88.2489 175.736 87.4102C175.846 87.3628 175.925 87.4102 176.019 87.4893C176.271 87.6951 176.586 87.9641 177.216 88.0749L177.436 88.1382C178.365 88.4072 178.679 88.4863 179.734 88.4547C180.269 88.5971 180.6 88.6604 180.93 88.692C181.245 88.7237 181.56 88.7079 182.048 88.6762C182.268 88.8503 182.457 89.0718 182.646 89.3092C183.386 90.1954 184.267 90.8758 185.495 90.7967C187.053 90.6859 187.447 89.2459 187.069 87.9324C187.352 87.6318 187.588 87.3944 187.793 87.1729C188.69 86.2392 189.178 85.7328 189.32 85.0207C189.493 84.182 189.131 83.1534 188.58 82.1406C188.061 81.1911 187.368 80.2258 186.786 79.4346C186.455 78.9915 185.936 78.5959 185.322 78.4693C184.897 78.3743 184.425 78.4218 183.952 78.6433C183.512 78.3427 183.118 78.1369 182.693 78.0736C182.237 78.0103 181.765 78.1053 181.214 78.406C180.867 78.2319 180.537 78.1211 180.175 78.0895C179.797 78.0578 179.404 78.1369 178.947 78.3427C177.877 77.8679 176.806 77.8679 175.799 78.1053C174.776 78.406 173.816 78.9124 173.029 79.4029C172.431 79.7669 172.006 80.0676 171.581 80.3999C171.156 80.7322 170.746 81.112 170.227 81.65C166.009 85.1789 162.278 88.4863 159.256 92.3317C156.218 96.1929 153.92 100.592 152.629 106.242C152.488 106.875 152.346 107.318 152.252 107.666C152.063 108.33 151.953 108.694 152.031 109.217C152.189 110.182 152.771 110.894 153.621 111.939C154.109 112.54 154.691 113.268 155.337 114.217C157.965 118.126 161.224 122.24 164.765 125.469C167.551 128.016 170.526 130.01 173.517 130.944C173.58 140.597 175.941 143.493 179.655 148.019C181.151 149.855 182.882 151.959 184.755 154.918C185.401 158.052 185.81 160.869 186.093 163.638C186.361 166.281 186.487 168.907 186.581 171.724H166.986C165.177 171.724 163.711 173.191 163.711 175H251.273C251.273 173.191 249.807 171.724 247.998 171.724H228.419C228.513 168.923 228.655 166.296 228.907 163.638C229.174 160.869 229.583 158.052 230.244 154.918C232.133 151.943 233.849 149.839 235.344 148.019C239.059 143.493 241.42 140.597 241.483 130.944C244.474 130.01 247.448 128.001 250.235 125.469C253.776 122.24 257.034 118.126 259.663 114.217C260.308 113.268 260.891 112.54 261.379 111.939C262.213 110.91 262.795 110.182 262.968 109.217C263.047 108.71 262.953 108.346 262.748 107.682ZM236.698 110.451C236.761 110.293 236.824 110.135 236.887 109.945C237.737 107.603 238.933 105.909 240.554 104.976C242.333 103.963 244.662 103.836 247.685 104.707L248.472 104.928C248.991 105.419 249.573 105.909 250.219 106.384C246.016 112.081 241.026 114.17 233.943 115.088C235.108 113.964 235.769 112.841 236.698 110.451ZM198.733 98.6932C198.685 98.5033 198.654 98.3135 198.607 98.171L198.528 97.8387C198.402 97.8387 198.024 97.8545 197.946 97.7121C197.757 97.3956 197.568 97.0949 197.379 96.8259C196.844 96.0189 196.419 95.3542 196.387 94.3098C196.372 93.8667 196.434 93.5027 196.497 93.1862C196.56 92.8856 196.608 92.6166 196.592 92.3317C196.576 92.1418 196.56 92.0152 196.56 91.8886C196.513 91.4139 196.482 91.0341 196.576 90.9866C197.19 92.4583 197.033 94.7687 198.197 96.7626C198.103 94.7371 197.93 93.6452 197.788 92.3001L197.898 92.4583L197.993 91.1765C198.024 90.8758 198.04 90.5435 198.056 90.1954C198.071 90.0055 198.071 89.7998 198.071 89.6099L198.559 89.9897C198.544 89.7048 198.544 89.4516 198.544 89.2142C198.969 88.8977 199.457 88.7079 200.149 88.8028C200.732 88.8819 201.109 89.1984 202.101 89.4674L201.755 89.2301C202.258 89.4674 202.715 89.7365 203.203 89.9897C203.958 90.3694 203.974 90.0846 204.352 90.3694C204.619 90.591 204.855 90.5752 204.887 90.5593C205.233 90.4169 205.343 90.1004 205.139 89.594C205.076 89.42 204.934 89.2142 204.682 89.0243L204.745 89.2301C204.415 88.9136 204.131 88.8344 203.801 88.7078C204.068 88.9294 204.226 89.0718 204.32 89.1826C203.958 88.9294 203.738 88.692 203.392 88.518C202.353 87.9641 201.487 87.885 200.322 87.9799C199.693 88.0274 199.425 88.0907 199.22 88.1698C199.378 88.154 199.63 88.1698 199.63 88.1698C199.173 88.2648 198.795 88.5496 198.528 88.9452C198.544 87.6792 198.701 86.9671 199.047 85.3847L199.882 86.2234C199.394 84.5618 199.787 83.7547 200.228 83.2642C200.905 82.5204 203.045 82.8527 204.887 83.1217C207.185 82.1089 208.633 82.8527 210.884 83.0426C211.498 83.0901 212.694 82.6153 213.701 82.5362C214.788 82.4571 216.125 83.2958 216.613 87.2836C216.881 89.42 216.834 91.2556 216.85 93.0122C216.865 94.563 217.007 96.0505 216.802 97.7438C217.888 94.7054 217.983 92.6166 218.203 91.0183C218.25 90.9866 218.282 90.9866 218.313 91.0024L218.376 91.0183C218.376 91.0183 218.392 91.0183 218.392 91.0341C218.408 91.1607 218.424 91.3031 218.439 91.4297C218.439 91.5721 218.424 91.7462 218.408 91.9361C218.392 92.0627 218.392 92.1893 218.376 92.3792C218.361 92.664 218.408 92.9331 218.471 93.2337C218.534 93.5502 218.597 93.9142 218.581 94.3573C218.549 95.4017 218.109 96.0663 217.589 96.8734C217.416 97.1424 217.227 97.4431 217.038 97.7596C216.96 97.8862 216.582 97.8704 216.456 97.8862L216.377 98.2185C216.33 98.3768 216.299 98.5508 216.251 98.7407C216.22 98.9148 216.188 99.1047 216.157 99.2788C216.031 100.133 216 100.893 215.968 101.573C215.921 102.539 215.889 103.377 215.59 104.121C215.386 104.659 214.614 105.245 213.875 105.83C213.45 106.163 213.009 106.511 212.663 106.859C212.238 107.286 211.907 107.666 211.624 107.998C211.199 108.505 210.884 108.869 210.475 109.058C210.113 109.217 209.751 109.312 209.326 109.359C208.869 109.407 208.334 109.422 207.626 109.422H207.5C206.729 109.422 206.162 109.422 205.674 109.359C205.217 109.312 204.855 109.217 204.478 109.058C204.068 108.869 203.738 108.505 203.329 107.998C203.045 107.666 202.731 107.286 202.29 106.859C201.944 106.511 201.503 106.178 201.078 105.83C200.338 105.245 199.583 104.659 199.362 104.121C199.063 103.362 199.032 102.539 198.984 101.573C198.969 100.592 198.921 99.6269 198.733 98.6932ZM186.502 110.53C189.052 111.211 191.429 112.698 193.365 114.771L193.554 114.977L193.822 114.914C199.394 113.458 199.504 111.464 199.708 105.909C199.96 106.131 200.244 106.337 200.511 106.558C200.936 106.89 201.345 107.207 201.644 107.508C202.038 107.903 202.353 108.267 202.62 108.584C203.124 109.185 203.502 109.628 204.116 109.897C204.588 110.103 205.044 110.214 205.595 110.277C206.115 110.34 206.713 110.34 207.531 110.34H207.657C208.413 110.34 208.979 110.324 209.467 110.277C209.987 110.214 210.428 110.103 210.884 109.897C211.498 109.628 211.876 109.185 212.379 108.584C212.647 108.267 212.962 107.903 213.355 107.508C213.654 107.207 214.079 106.89 214.488 106.558C214.803 106.305 215.134 106.052 215.417 105.799C215.37 107.302 215.386 110.04 215.858 111.353C216.818 114.043 218.707 114.154 221.147 114.914L221.43 115.009L221.635 114.787C223.586 112.714 225.963 111.226 228.497 110.546C230.701 109.96 233.03 109.96 235.344 110.657C233.566 113.917 231.85 113.758 229.41 115.246C227.789 132.321 221.65 137.606 208.617 139.458C213.151 140.344 217.558 139.98 221.273 138.334C226.12 152.608 218.03 153.652 209.247 156.453C212.899 156.453 216.015 156.422 219.667 156.169C220.029 165.711 216.094 164.951 210.302 166.122C213.214 166.629 215.354 167.103 218.455 166.201C218.219 168.575 217.999 170.332 217.668 171.724H207.484H204.667H197.316C196.985 170.332 196.765 168.559 196.529 166.201C199.63 167.103 201.786 166.629 204.682 166.122C198.89 164.935 194.955 165.711 195.317 156.169C198.969 156.422 202.085 156.453 205.737 156.453C196.954 153.652 188.863 152.608 193.711 138.334C197.426 139.98 201.833 140.344 206.367 139.458C193.334 137.59 187.195 132.321 185.574 115.246C183.165 113.758 180.836 113.822 179.608 110.752C182.001 109.929 184.204 109.913 186.502 110.53ZM174.445 104.991C176.177 105.988 177.719 107.919 178.585 110.514C179.01 112.239 179.797 113.695 181.166 115.119C174.02 114.201 169.015 112.128 164.781 106.4C165.426 105.925 166.009 105.435 166.528 104.944L167.315 104.722C170.353 103.852 172.682 103.979 174.445 104.991ZM169.251 124.266C164.356 122.098 160.468 118.553 156.328 112.635C157.997 112.809 160.452 112.809 163.459 111.78C158.815 111.796 154.471 111.29 152.96 109.122L152.944 109.074C152.897 108.774 152.976 108.489 153.133 107.951C153.243 107.587 153.385 107.112 153.527 106.463C154.802 100.972 157.037 96.6835 159.98 92.9172C162.955 89.1351 166.654 85.8436 170.825 82.3463L170.841 82.3305L170.888 82.3147C171.392 81.8083 171.77 81.4443 172.163 81.1436C172.572 80.8271 172.982 80.5423 173.532 80.21C174.256 79.7511 175.122 79.2921 176.035 79.0706C176.917 78.8649 177.861 78.8649 178.758 79.3396L178.979 79.4504L179.199 79.3396C179.577 79.1339 179.876 79.0706 180.143 79.0864C180.411 79.1023 180.694 79.2288 181.025 79.4029L181.261 79.5295L181.497 79.3871C181.953 79.1023 182.3 79.0073 182.599 79.039C182.914 79.0864 183.244 79.2763 183.669 79.6086L183.937 79.8144L184.204 79.6403C184.551 79.4187 184.881 79.3713 185.164 79.4346C185.542 79.5137 185.857 79.7669 186.077 80.0359C186.644 80.7955 187.305 81.7292 187.793 82.6312C188.25 83.4699 188.549 84.2769 188.423 84.8783C188.328 85.3214 187.919 85.7645 187.148 86.5557C186.88 86.8405 186.55 87.1729 186.235 87.521C185.967 87.8217 185.715 88.0116 185.243 87.8533C184.488 87.6159 184.976 86.9671 185.196 86.4766C185.448 85.9227 185.747 85.2897 185.841 84.815C185.983 84.1503 185.574 83.4857 184.802 82.2039C185.117 83.2009 185.558 84.5776 185.416 84.9416C185.023 85.8594 184.566 87.157 183.827 87.6634C183.622 87.8058 182.599 87.8058 182.552 87.4261C182.473 86.888 183.197 85.2264 182.646 84.0079C182.378 83.4224 181.906 82.6628 181.591 81.8716C181.985 84.2928 182.127 86.0177 181.985 86.9355C181.828 87.9483 180.521 87.7267 180.128 87.3311C179.419 86.6506 179.86 84.1978 179.073 82.1564C179.467 84.7358 179.451 87.4419 177.924 87.1412C176.665 86.9038 177.593 85.1948 176.932 83.5173C176.271 86.4766 175.689 85.5904 174.981 86.0335C170.416 88.8503 170.164 101.494 157.839 109.596C159.571 109.327 161.57 108.489 163.349 107.397C167.834 114.249 176.539 117.635 182.866 116.638C182.992 119.392 183.433 122.525 184.141 125.421C177.263 127.494 176.366 127.415 169.251 124.266ZM189.682 153.336C183.291 147.766 175.044 139.521 178.412 132.463C179.372 130.469 182.001 129.646 184.755 127.763C185.432 129.915 186.282 131.83 187.274 133.175C188.69 135.106 190.469 136.609 192.468 137.717C189.949 144.316 188.911 150.092 193.916 155.583C193.098 159.492 193.412 162.973 194.829 165.394C194.813 168.243 194.829 170.126 195.175 171.708H189.887C189.525 165.822 188.564 160.869 189.682 153.336ZM225.302 153.336C226.42 160.869 225.475 165.822 225.082 171.724H219.793C220.139 170.142 220.155 168.259 220.139 165.41C221.556 162.989 221.871 159.508 221.052 155.599C226.058 150.108 225.019 144.332 222.5 137.733C224.515 136.641 226.278 135.122 227.695 133.191C228.686 131.846 229.536 129.931 230.213 127.779C232.967 129.646 235.612 130.469 236.556 132.479C239.956 139.521 231.693 147.766 225.302 153.336ZM262.04 109.074L262.024 109.122C260.513 111.29 256.169 111.796 251.525 111.78C254.532 112.809 256.971 112.825 258.656 112.635C254.516 118.553 250.644 122.082 245.733 124.266C238.634 127.415 237.737 127.494 230.874 125.421C231.582 122.509 232.023 119.376 232.149 116.638C238.477 117.651 247.197 114.265 251.667 107.397C253.461 108.489 255.445 109.343 257.176 109.596C244.867 101.494 244.615 88.8344 240.051 86.0335C239.327 85.5904 238.76 86.4766 238.099 83.5173C237.438 85.2106 238.366 86.9038 237.107 87.1412C235.58 87.4261 235.565 84.7358 235.958 82.1564C235.171 84.182 235.596 86.6348 234.904 87.3311C234.51 87.7109 233.204 87.9483 233.046 86.9355C232.905 86.0018 233.046 84.2928 233.44 81.8716C233.125 82.6628 232.637 83.4224 232.385 84.0079C231.85 85.2264 232.574 86.888 232.48 87.4261C232.417 87.8058 231.393 87.8058 231.205 87.6634C230.465 87.157 230.008 85.8594 229.615 84.9416C229.457 84.5776 229.898 83.2009 230.229 82.2039C229.457 83.4857 229.032 84.1503 229.174 84.815C229.284 85.2739 229.568 85.9227 229.835 86.4766C230.056 86.9671 230.544 87.6159 229.788 87.8533C229.52 87.9483 229.237 87.885 228.985 87.7425L229.001 87.7109L228.812 87.5052C228.482 87.1412 228.167 86.8247 227.899 86.5399C227.128 85.7486 226.703 85.3055 226.624 84.8624C226.514 84.2769 226.797 83.454 227.254 82.6153C227.742 81.7133 228.419 80.7797 228.969 80.0201C229.174 79.7352 229.505 79.482 229.882 79.4187C230.166 79.3554 230.496 79.4029 230.843 79.6245L231.11 79.7985L231.378 79.5928C231.803 79.2763 232.133 79.0706 232.448 79.0231C232.747 78.9757 233.093 79.0864 233.55 79.3713L233.786 79.5137L234.022 79.3871C234.353 79.1972 234.62 79.0864 234.904 79.0706C235.171 79.0548 235.47 79.1339 235.848 79.3238L236.068 79.4346L236.289 79.3238C237.186 78.8649 238.13 78.8491 239.012 79.0548C239.94 79.2763 240.806 79.7352 241.514 80.1942C242.065 80.5423 242.475 80.8113 242.884 81.1278C243.277 81.4443 243.671 81.7925 244.159 82.2988L244.175 82.3147L244.206 82.3305C248.377 85.8278 252.092 89.1035 255.051 92.9014C258.01 96.6677 260.245 100.94 261.505 106.447C261.646 107.096 261.788 107.571 261.898 107.935C262.008 108.473 262.087 108.774 262.04 109.074Z" fill="url(#paint4_linear_148_7636)"/>
    </g>
    <path d="M140.32 207.48V217H134.64V191.56H145.12C148.48 191.56 150.16 193.027 150.16 195.96V203.08C150.16 205.427 149.093 206.84 146.96 207.32L151.44 217H145.32L141.32 207.48H140.32ZM140.32 195.76V203.44H143.4C143.773 203.44 144.04 203.373 144.2 203.24C144.36 203.08 144.44 202.827 144.44 202.48V196.76C144.44 196.093 144.093 195.76 143.4 195.76H140.32ZM160.81 191.56H166.17C169.53 191.56 171.21 193.027 171.21 195.96V212.56C171.21 215.52 169.53 217 166.17 217H160.81C157.423 217 155.73 215.52 155.73 212.56V195.96C155.73 193.027 157.423 191.56 160.81 191.56ZM165.49 211.8V196.76C165.49 196.093 165.143 195.76 164.45 195.76H162.53C161.81 195.76 161.45 196.093 161.45 196.76V211.8C161.45 212.467 161.81 212.8 162.53 212.8H164.45C165.143 212.8 165.49 212.467 165.49 211.8ZM188.74 217L187.86 212.4H182.06L181.18 217H175.54L181.3 191.56H188.58L194.5 217H188.74ZM182.86 208.24H187.02L184.94 197.48L182.86 208.24ZM199.256 191.56H209.856C213.242 191.56 214.936 193.027 214.936 195.96V212.56C214.936 215.52 213.242 217 209.856 217H199.256V191.56ZM209.216 212.08V196.48C209.216 195.813 208.856 195.48 208.136 195.48H204.976V213.08H208.136C208.856 213.08 209.216 212.747 209.216 212.08ZM225.93 217H220.89V191.56H227.13L231.33 205.96L235.53 191.56H241.77V217H236.73V199.92L233.45 211.48H229.21L225.93 199.96V217ZM259.482 217L258.602 212.4H252.802L251.922 217H246.282L252.042 191.56H259.322L265.242 217H259.482ZM253.602 208.24H257.762L255.682 197.48L253.602 208.24ZM269.718 191.56H280.198C283.558 191.56 285.238 193.027 285.238 195.96V203.68C285.238 206.64 283.558 208.12 280.198 208.12H275.398V217H269.718V191.56ZM279.518 202.92V196.76C279.518 196.093 279.171 195.76 278.478 195.76H275.398V203.92H278.478C279.171 203.92 279.518 203.587 279.518 202.92Z" fill="url(#paint5_linear_148_7636)"/>
    <defs>
        <filter id="filter0_d_148_7636" x="34.5938" y="0" width="345.245" height="345.234" filterUnits="userSpaceOnUse" color-interpolation-filters="sRGB">
            <feFlood flood-opacity="0" result="BackgroundImageFix"/>
            <feColorMatrix in="SourceAlpha" type="matrix" values="0 0 0 0 0 0 0 0 0 0 0 0 0 0 0 0 0 0 127 0" result="hardAlpha"/>
            <feOffset dy="15"/>
            <feGaussianBlur stdDeviation="20"/>
            <feComposite in2="hardAlpha" operator="out"/>
            <feColorMatrix type="matrix" values="0 0 0 0 0 0 0 0 0 0 0 0 0 0 0 0 0 0 0.25 0"/>
            <feBlend mode="normal" in2="BackgroundImageFix" result="effect1_dropShadow_148_7636"/>
            <feBlend mode="normal" in="SourceGraphic" in2="effect1_dropShadow_148_7636" result="shape"/>
        </filter>
        <linearGradient id="paint0_linear_148_7636" x1="287.15" y1="254.909" x2="127.868" y2="61.0237" gradientUnits="userSpaceOnUse">
            <stop offset="0.3181" stop-color="white"/>
            <stop offset="0.605" stop-color="#FDFDFD"/>
            <stop offset="0.7574" stop-color="#F5F5F6"/>
            <stop offset="0.8782" stop-color="#E7E9E9"/>
            <stop offset="0.9818" stop-color="#D4D7D8"/>
            <stop offset="1" stop-color="#D0D3D4"/>
        </linearGradient>
        <linearGradient id="paint1_linear_148_7636" x1="205.015" y1="78.0847" x2="223.395" y2="91.574" gradientUnits="userSpaceOnUse">
            <stop stop-color="#10BDE3"/>
            <stop offset="0.9813" stop-color="#573CFF"/>
        </linearGradient>
        <linearGradient id="paint2_linear_148_7636" x1="181.638" y1="101.029" x2="210.777" y2="128.318" gradientUnits="userSpaceOnUse">
            <stop stop-color="#10BDE3"/>
            <stop offset="0.9813" stop-color="#573CFF"/>
        </linearGradient>
        <linearGradient id="paint3_linear_148_7636" x1="203.643" y1="101.029" x2="232.781" y2="128.318" gradientUnits="userSpaceOnUse">
            <stop stop-color="#10BDE3"/>
            <stop offset="0.9813" stop-color="#573CFF"/>
        </linearGradient>
        <linearGradient id="paint4_linear_148_7636" x1="85.0189" y1="-320.158" x2="499.968" y2="-197.704" gradientUnits="userSpaceOnUse">
            <stop stop-color="#10BDE3"/>
            <stop offset="0.9813" stop-color="#573CFF"/>
        </linearGradient>
        <linearGradient id="paint5_linear_148_7636" x1="-252.882" y1="-69.4739" x2="154.774" y2="657.17" gradientUnits="userSpaceOnUse">
            <stop stop-color="#10BDE3"/>
            <stop offset="0.9813" stop-color="#573CFF"/>
        </linearGradient>
        <clipPath id="clip0_148_7636">
            <rect width="111" height="104" fill="white" transform="translate(152 71)"/>
        </clipPath>
    </defs>
</svg>