<svg width="24" height="24" viewBox="0 0 24 24" fill="none" xmlns="http://www.w3.org/2000/svg">
<path fill-rule="evenodd" clip-rule="evenodd" d="M5 19.375V8H19V19.375C19 20.0712 18.7542 20.7389 18.3166 21.2312C17.879 21.7234 17.2855 22 16.6667 22H7.33333C6.71449 22 6.121 21.7234 5.68342 21.2312C5.24583 20.7389 5 20.0712 5 19.375ZM8 11.8V18.2C8 18.6418 8.35817 19 8.8 19C9.24183 19 9.6 18.6418 9.6 18.2V11.8C9.6 11.3582 9.24183 11 8.8 11C8.35817 11 8 11.3582 8 11.8ZM11.2 11.8V18.2C11.2 18.6418 11.5582 19 12 19C12.4418 19 12.8 18.6418 12.8 18.2V11.8C12.8 11.3582 12.4418 11 12 11C11.5582 11 11.2 11.3582 11.2 11.8ZM14.4 18.2V11.8C14.4 11.3582 14.7582 11 15.2 11C15.6418 11 16 11.3582 16 11.8V18.2C16 18.6418 15.6418 19 15.2 19C14.7582 19 14.4 18.6418 14.4 18.2Z" fill="#B5B5C3"/>
<path d="M14.8333 5.33333V5.83333H15.3333H19.3333C19.3369 5.83333 19.37 5.83438 19.4143 5.88976C19.4609 5.94803 19.5 6.0466 19.5 6.16667C19.5 6.28673 19.4609 6.38531 19.4143 6.44357C19.37 6.49895 19.3369 6.5 19.3333 6.5H4.66667C4.66306 6.5 4.63 6.49895 4.5857 6.44357C4.53908 6.3853 4.5 6.28673 4.5 6.16667C4.5 6.0466 4.53908 5.94803 4.5857 5.88976C4.63 5.83438 4.66306 5.83333 4.66667 5.83333H8.66667H9.16667V5.33333V2.83333C9.16667 2.71327 9.20575 2.61469 9.25236 2.55643C9.29666 2.50105 9.32972 2.5 9.33333 2.5H14.6667C14.6703 2.5 14.7033 2.50105 14.7476 2.55642C14.7943 2.61469 14.8333 2.71327 14.8333 2.83333V5.33333ZM10 3.16667H9.5V3.66667V5.33333V5.83333H10H14H14.5V5.33333V3.66667V3.16667H14H10Z" fill="#B5B5C3" stroke="#B5B5C3"/>
</svg>
