<svg xmlns="http://www.w3.org/2000/svg" xmlns:xlink="http://www.w3.org/1999/xlink" width="17.115" height="14.689" viewBox="0 0 17.115 14.689"><defs><style>.a{fill:url(#a);}</style><linearGradient id="a" x1="0.5" x2="0.5" y2="1" gradientUnits="objectBoundingBox"><stop offset="0" stop-color="#00aeef"/><stop offset="1" stop-color="#0d5ba7"/></linearGradient></defs><g transform="translate(-15.045 -20)"><path class="a" d="M52.3,23.672A3.672,3.672,0,1,1,48.627,20,3.672,3.672,0,0,1,52.3,23.672Z" transform="translate(-22.588 0)"/><path class="a" d="M18.161,23.974a.49.49,0,0,1,0,.692l-3.116,3.116V26.051L16.6,24.493a.245.245,0,0,0,0-.346l-1.558-1.558V20.858Z" transform="translate(0 -0.648)"/><path class="a" d="M46.808,51.91v3.672H34.442V51.91a4.891,4.891,0,0,1,2.46-4.243,4.887,4.887,0,0,0,7.528.05A4.888,4.888,0,0,1,46.808,51.91Z" transform="translate(-14.648 -20.894)"/></g></svg>