<svg xmlns="http://www.w3.org/2000/svg" xmlns:xlink="http://www.w3.org/1999/xlink" width="19.84" height="14.288" viewBox="0 0 19.84 14.288"><defs><style>.a{fill:url(#a);}</style><linearGradient id="a" x1="0.5" x2="0.5" y2="1" gradientUnits="objectBoundingBox"><stop offset="0" stop-color="#00aeef"/><stop offset="1" stop-color="#0d5ba7"/></linearGradient></defs><g transform="translate(-0.24 -318.4)"><g transform="translate(0.24 318.4)"><g transform="translate(0 0)"><path class="a" d="M7.144,318.4c-3.283,0-5.944,1.985-5.944,4.433A4.139,4.139,0,0,0,3.433,326.3l3.457,2.68v-1.716c.083,0,.168,0,.251,0a7.812,7.812,0,0,0,1.668-.177l-.007-.054a3.856,3.856,0,0,1-.028-.468,4.067,4.067,0,0,1,1.189-2.815,6.4,6.4,0,0,1,2.949-1.7l.076-.021C12.48,319.964,10.057,318.4,7.144,318.4Zm.463,6.738H6.515v-1.073H7.607Zm1.049-3.287a1.088,1.088,0,0,1-.118.279,1.3,1.3,0,0,1-.18.229,1.807,1.807,0,0,1-.229.194c-.083.066-.163.125-.236.182a1.239,1.239,0,0,0-.189.175.728.728,0,0,0-.123.2.69.69,0,0,0-.045.265v.17H6.584v-.17a1.613,1.613,0,0,1,.128-.662,1.275,1.275,0,0,1,.421-.5l.2-.149a1.963,1.963,0,0,0,.177-.149.742.742,0,0,0,.13-.163.379.379,0,0,0,.05-.191.356.356,0,0,0-.175-.324.747.747,0,0,0-.4-.109,1.034,1.034,0,0,0-.3.043,1.237,1.237,0,0,0-.255.109,1.772,1.772,0,0,0-.208.139,1.636,1.636,0,0,0-.156.137l-.612-.648a2.486,2.486,0,0,1,.236-.227,2.079,2.079,0,0,1,.345-.227,2.4,2.4,0,0,1,.451-.175,2.12,2.12,0,0,1,.567-.069,1.957,1.957,0,0,1,.6.087,1.373,1.373,0,0,1,.48.255,1.184,1.184,0,0,1,.317.406,1.251,1.251,0,0,1,.116.539A1.233,1.233,0,0,1,8.656,321.85Z" transform="translate(-1.2 -318.4)"/><g transform="translate(7.952 3.734)"><path class="a" d="M343.644,476.4a7.8,7.8,0,0,0-2.082.279c-2.257.629-3.862,2.252-3.862,4.155a3.528,3.528,0,0,0,.026.421c.284,2.25,2.824,4.013,5.918,4.013.085,0,.168,0,.25,0v1.692l2.493-1.933.35-.272.494-.383a4.181,4.181,0,0,0,2.356-3.535C349.585,478.385,346.924,476.4,343.644,476.4Zm.685,1.737-.045,3.439h-1.118l-.045-3.439Zm-.009,5.168h-1.2v-1.177h1.2Z" transform="translate(-337.7 -476.4)"/></g></g></g></g></svg>