<svg xmlns="http://www.w3.org/2000/svg" xmlns:xlink="http://www.w3.org/1999/xlink" width="20.09" height="16.166" viewBox="0 0 20.09 16.166">
  <defs>
    <linearGradient id="linear-gradient" x1="0.5" x2="0.5" y2="1" gradientUnits="objectBoundingBox">
      <stop offset="0" stop-color="#00aeef"/>
      <stop offset="1" stop-color="#0d5ba7"/>
    </linearGradient>
  </defs>
  <g id="instructor" transform="translate(0 -50)">
    <path id="Path_42417" data-name="Path 42417" d="M68.414,285.354a3.947,3.947,0,0,1-2.636-1.007,4.04,4.04,0,0,0-.778,2.38v3.414a1.178,1.178,0,0,0,1.177,1.177H70.65a1.178,1.178,0,0,0,1.177-1.177v-3.414a4.04,4.04,0,0,0-.778-2.38A3.947,3.947,0,0,1,68.414,285.354Z" transform="translate(-62.45 -225.152)" fill="url(#linear-gradient)"/>
    <path id="Path_42418" data-name="Path 42418" d="M18.324,50H1.766A1.768,1.768,0,0,0,0,51.766v8.946a1.768,1.768,0,0,0,1.373,1.721v-.858a5.214,5.214,0,0,1,1.171-3.287l.017-.02a3.963,3.963,0,1,1,6.806,0l.017.02a5.214,5.214,0,0,1,1.171,3.287v.9h7.769a1.768,1.768,0,0,0,1.766-1.766V51.766A1.768,1.768,0,0,0,18.324,50ZM11.3,59.339a.589.589,0,1,1,.589-.589A.589.589,0,0,1,11.3,59.339Zm0-2.511a.589.589,0,1,1,.589-.589A.589.589,0,0,1,11.3,56.827Zm0-2.511a.589.589,0,1,1,.589-.589A.589.589,0,0,1,11.3,54.316Zm5.65,5.022H13.812a.589.589,0,1,1,0-1.177h3.139a.589.589,0,1,1,0,1.177Zm0-2.511H13.812a.589.589,0,1,1,0-1.177h3.139a.589.589,0,1,1,0,1.177Zm0-2.511H13.812a.589.589,0,1,1,0-1.177h3.139a.589.589,0,1,1,0,1.177Z" fill="url(#linear-gradient)"/>
    <circle id="Ellipse_1668" data-name="Ellipse 1668" cx="2" cy="2" r="2" transform="translate(4 54)" fill="url(#linear-gradient)"/>
  </g>
</svg>
