<svg xmlns="http://www.w3.org/2000/svg" xmlns:xlink="http://www.w3.org/1999/xlink" width="15.029" height="20.039" viewBox="0 0 15.029 20.039"><defs><style>.a{fill:url(#a);}</style><linearGradient id="a" x1="0.5" x2="0.5" y2="1" gradientUnits="objectBoundingBox"><stop offset="0" stop-color="#00aeef"/><stop offset="1" stop-color="#0d5ba7"/></linearGradient></defs><path class="a" d="M13.151,2.5H10.02a2.5,2.5,0,0,0-5.01,0H1.879A1.879,1.879,0,0,0,0,4.384V18.16a1.879,1.879,0,0,0,1.879,1.879H13.151a1.879,1.879,0,0,0,1.879-1.879V4.384A1.879,1.879,0,0,0,13.151,2.5ZM7.515,1.566a.939.939,0,1,1-.939.939A.937.937,0,0,1,7.515,1.566Zm4.744,9.072-5.6,5.55a.47.47,0,0,1-.665,0l-3.233-3.26a.47.47,0,0,1,0-.665l1.112-1.1a.47.47,0,0,1,.665,0l1.8,1.816,4.149-4.117a.47.47,0,0,1,.665,0l1.1,1.112A.47.47,0,0,1,12.258,10.638Z"/></svg>