<svg xmlns="http://www.w3.org/2000/svg" xmlns:xlink="http://www.w3.org/1999/xlink" width="16.121" height="16.325" viewBox="0 0 16.121 16.325"><defs><style>.a{fill:none;}.b{clip-path:url(#a);}.c{fill:url(#b);}</style><clipPath id="a"><rect class="a" width="16.121" height="16.325"/></clipPath><linearGradient id="b" x1="0.5" x2="0.5" y2="1" gradientUnits="objectBoundingBox"><stop offset="0" stop-color="#00aeef"/><stop offset="1" stop-color="#0d5ba7"/></linearGradient></defs><g class="b"><path class="c" d="M13.2,0V2.755h2.755A4.139,4.139,0,0,0,13.2,0Z" transform="translate(0.166)"/><path class="c" d="M6.528,3.771A6.026,6.026,0,0,1,7.752.2H1.12A1.022,1.022,0,0,0,.1,1.22V15.3a1.022,1.022,0,0,0,1.02,1.02H13.466a1.022,1.022,0,0,0,1.02-1.02V9.281a6.67,6.67,0,0,1-2.143.408A5.9,5.9,0,0,1,6.528,3.771ZM5.2,13.26H3.161v-4.8H5.2Zm3.163,0H6.324V9.893H8.365Zm3.163,0H9.487V11.322h2.041Z" transform="translate(-0.1 0.004)"/><path class="c" d="M11.257,4.8V0A3.86,3.86,0,0,0,8.5,4.693,3.726,3.726,0,0,0,11.359,7.55,3.86,3.86,0,0,0,16.053,4.8Z" transform="translate(0.069)"/></g></svg>