<svg xmlns="http://www.w3.org/2000/svg" xmlns:xlink="http://www.w3.org/1999/xlink" width="14.989" height="15.74" viewBox="0 0 14.989 15.74"><defs><style>.a{fill:url(#a);}</style><linearGradient id="a" x1="0.5" x2="0.5" y2="1" gradientUnits="objectBoundingBox"><stop offset="0" stop-color="#00aeef"/><stop offset="1" stop-color="#0d5ba7"/></linearGradient></defs><g transform="translate(-23.3 -19.126)"><g transform="translate(23.3 25.917)"><path class="a" d="M4.515,8.732.326,5.156A.954.954,0,0,1,0,4.469a.839.839,0,0,1,.326-.686L4.515.208A.864.864,0,0,1,5.743.316a.864.864,0,0,1-.109,1.228L3.147,3.639H14.123a.867.867,0,0,1,0,1.734H3.319l2.316,1.95a.867.867,0,0,1,.109,1.228.694.694,0,0,1-.65.4A.887.887,0,0,1,4.515,8.732Z" transform="translate(0 0)"/></g><g transform="translate(23.359 19.125)"><path class="a" d="M9.136,8.517a.86.86,0,0,1,.109-1.224l2.39-2.015H.861a.863.863,0,0,1,0-1.726H11.638L9.245,1.537A.868.868,0,1,1,10.359.206L14.6,3.73a.96.96,0,0,1,.326.683A.836.836,0,0,1,14.6,5.1L10.433,8.66a1.215,1.215,0,0,1-.612.18A.9.9,0,0,1,9.136,8.517Z" transform="translate(0.001 0)"/></g></g></svg>