<svg xmlns="http://www.w3.org/2000/svg" xmlns:xlink="http://www.w3.org/1999/xlink" width="17.921" height="13.875" viewBox="0 0 17.921 13.875"><defs><style>.a{fill:url(#a);}</style><linearGradient id="a" x1="0.5" x2="0.5" y2="1" gradientUnits="objectBoundingBox"><stop offset="0" stop-color="#00aeef"/><stop offset="1" stop-color="#0d5ba7"/></linearGradient></defs><path class="a" d="M15.222,13.875H2.7a.438.438,0,0,1-.448-.427V4.976l-1,.495a.829.829,0,0,1-1.1-.178.718.718,0,0,1-.145-.564.761.761,0,0,1,.319-.495l.014-.014L8.512.134a.818.818,0,0,1,.9,0l8.17,4.085.015.014a.718.718,0,0,1,.318.495.7.7,0,0,1-.144.564.845.845,0,0,1-1.1.192l-1-.495v8.459A.439.439,0,0,1,15.222,13.875ZM6.877,8.35h0l-.008.02A1.607,1.607,0,0,0,7.283,9.6a1.8,1.8,0,0,0,1.1.491v.746H9v-.75A1.8,1.8,0,0,0,10.1,9.618a1.439,1.439,0,0,0,.4-1.068,1.412,1.412,0,0,0-.387-1.045,2.966,2.966,0,0,0-1.184-.643,2.329,2.329,0,0,1-.856-.446A.829.829,0,0,1,7.842,5.8a.914.914,0,0,1,.23-.658.92.92,0,0,1,.691-.24.825.825,0,0,1,.679.309,1.255,1.255,0,0,1,.247.8h.765a1.872,1.872,0,0,0-.361-1.2A1.5,1.5,0,0,0,9.08,4.28V3.413H8.463v.863a1.606,1.606,0,0,0-1.02.489,1.5,1.5,0,0,0-.371,1.051,1.433,1.433,0,0,0,.4,1.062,2.852,2.852,0,0,0,1.192.637,2.153,2.153,0,0,1,.822.443.82.82,0,0,1,.248.6.83.83,0,0,1-.284.666,1.185,1.185,0,0,1-.787.24,1.12,1.12,0,0,1-.742-.256,1.067,1.067,0,0,1-.305-.858H6.877Z" transform="translate(0 0)"/></svg>