<svg xmlns="http://www.w3.org/2000/svg" xmlns:xlink="http://www.w3.org/1999/xlink" width="18.827" height="14.674" viewBox="0 0 18.827 14.674"><defs><style>.a{fill-rule:evenodd;fill:url(#a);}</style><linearGradient id="a" x1="0.5" x2="0.5" y2="1" gradientUnits="objectBoundingBox"><stop offset="0" stop-color="#00aeef"/><stop offset="1" stop-color="#0d5ba7"/></linearGradient></defs><path class="a" d="M2.2,17.274a4.549,4.549,0,0,1,3.323-4.31,6.086,6.086,0,0,1-.842-3.036,5.859,5.859,0,0,1,.95-3.387c-2.2-.357-3.7,1.357-3.663,3.553a3.865,3.865,0,0,0,1.182,2.821,3.9,3.9,0,0,0-2.166.868A3.029,3.029,0,0,0,0,16.173v2.172H2.2c0-.354-.01-.718.008-1.071M14.143,9.927a6.086,6.086,0,0,1-.842,3.036,4.551,4.551,0,0,1,3.323,4.31c.018.353.008.717.008,1.071h2.2V16.172a3.03,3.03,0,0,0-.988-2.391,3.9,3.9,0,0,0-2.166-.868,3.865,3.865,0,0,0,1.182-2.821c.039-2.2-1.462-3.91-3.663-3.553A5.862,5.862,0,0,1,14.143,9.927Zm-11,10.262H15.7v-2.6a3.692,3.692,0,0,0-1.288-2.974,5.132,5.132,0,0,0-2.921-1.032,4.671,4.671,0,0,0,1.717-3.7c.041-2.289-1.291-4.372-3.788-4.372s-3.832,2.111-3.793,4.4a4.619,4.619,0,0,0,1.71,3.672,4.992,4.992,0,0,0-3,1.093,3.686,3.686,0,0,0-1.2,2.913Z" transform="translate(0 -5.515)"/></svg>