<svg xmlns="http://www.w3.org/2000/svg" xmlns:xlink="http://www.w3.org/1999/xlink" width="16.644" height="16.644" viewBox="0 0 16.644 16.644"><defs><style>.a{fill-rule:evenodd;fill:url(#a);}</style><linearGradient id="a" x1="0.5" x2="0.5" y2="1" gradientUnits="objectBoundingBox"><stop offset="0" stop-color="#00aeef"/><stop offset="1" stop-color="#0d5ba7"/></linearGradient></defs><path class="a" d="M19.46,247.591H3v-.8a.81.81,0,0,1,.8-.8H18.665a.81.81,0,0,1,.8.8Z" transform="translate(-2.816 -230.947)"/><path class="a" d="M11.565,5.629a.367.367,0,1,0-.734,0,1.071,1.071,0,0,1-2.142,0,.367.367,0,1,0-.734,0,1.071,1.071,0,0,1-2.142,0,.367.367,0,1,0-.734,0,1.1,1.1,0,0,1-2.2,0,.367.367,0,1,0-.734,0A1.073,1.073,0,0,1,0,5.752L2.019,0H14.624l2.019,5.752A1.073,1.073,0,0,1,14.5,5.629a.367.367,0,1,0-.734,0A1.1,1.1,0,0,1,11.565,5.629Z"/><path class="a" d="M26.058,117.588v-5.262a.353.353,0,0,0-.367-.367H22.142a.353.353,0,0,0-.367.367v5.262H20v-6.853A1.741,1.741,0,0,0,21.285,110a1.836,1.836,0,0,0,2.937,0,1.775,1.775,0,0,0,2.876,0,1.775,1.775,0,0,0,2.876,0,1.836,1.836,0,0,0,2.937,0,1.741,1.741,0,0,0,1.285.734v6.853Z" transform="translate(-18.776 -103.269)"/><path class="a" d="M63.815,158.9H61V154h2.815Z" transform="translate(-57.267 -144.577)"/></svg>