<svg xmlns="http://www.w3.org/2000/svg" xmlns:xlink="http://www.w3.org/1999/xlink" width="13.029" height="16.752" viewBox="0 0 13.029 16.752"><defs><style>.a{fill:url(#a);}</style><linearGradient id="a" x1="0.5" x2="0.5" y2="1" gradientUnits="objectBoundingBox"><stop offset="0" stop-color="#00aeef"/><stop offset="1" stop-color="#0d5ba7"/></linearGradient></defs><path class="a" d="M17.564,3H5.465A.465.465,0,0,0,5,3.465V19.286a.465.465,0,0,0,.465.465h12.1a.465.465,0,0,0,.465-.465V3.465A.465.465,0,0,0,17.564,3ZM15.7,17.891H7.327a.465.465,0,0,1,0-.931H15.7a.465.465,0,0,1,0,.931ZM8.375,15.13a.46.46,0,0,1,.491-.438A1.333,1.333,0,0,0,9.6,14.2a1.943,1.943,0,0,1,1-1.06.468.468,0,0,1,.571.181.479.479,0,0,1,.064.161h0a.465.465,0,0,1,.635.508l.022,0c.491-.034.647.234.691.435a.625.625,0,0,0,.353.117.455.455,0,0,1,.435-.176.46.46,0,0,1,.282.155,2.666,2.666,0,0,0,1.213-.511.465.465,0,1,1,.5.783,3.089,3.089,0,0,1-2.094.643.469.469,0,0,1-.052-.009,1.39,1.39,0,0,1-1.173-.239,1,1,0,0,1-.176-.146.91.91,0,0,1-.736.286.465.465,0,0,1-.385-.278,1.3,1.3,0,0,1-.827.279.511.511,0,0,1-.152-.03,1.51,1.51,0,0,1-.892.326c-.024,0-.048,0-.073,0A.464.464,0,0,1,8.375,15.13ZM15.7,9.515H7.327a.465.465,0,0,1,0-.931H15.7a.465.465,0,0,1,0,.931Zm0-2.792H7.327a.465.465,0,0,1,0-.931H15.7a.465.465,0,0,1,0,.931Z" transform="translate(-5 -3)"/></svg>