<svg xmlns="http://www.w3.org/2000/svg" xmlns:xlink="http://www.w3.org/1999/xlink" width="18.478" height="18.54" viewBox="0 0 18.478 18.54"><defs><style>.a{fill:url(#a);}</style><linearGradient id="a" x1="0.5" x2="0.5" y2="1" gradientUnits="objectBoundingBox"><stop offset="0" stop-color="#00aeef"/><stop offset="1" stop-color="#0d5ba7"/></linearGradient></defs><path class="a" d="M40.413,12.384a1.232,1.232,0,0,0,.484,1.348l.38.276a1.212,1.212,0,0,1,.207,1.8l-.311.346a1.2,1.2,0,0,0-.138,1.417l.242.415a1.246,1.246,0,0,1-.587,1.728l-.449.173a1.239,1.239,0,0,0-.76,1.209l.035.484a1.2,1.2,0,0,1-1.279,1.279l-.484-.035a1.239,1.239,0,0,0-1.209.76l-.173.449a1.225,1.225,0,0,1-1.728.622l-.38-.242a1.259,1.259,0,0,0-1.417.173l-.346.311a1.208,1.208,0,0,1-1.8-.173l-.276-.38a1.214,1.214,0,0,0-1.348-.484l-.449.138a1.234,1.234,0,0,1-1.555-.968l-.069-.449a1.252,1.252,0,0,0-1-1l-.484-.069a1.189,1.189,0,0,1-.968-1.52l.138-.449a1.232,1.232,0,0,0-.484-1.348l-.38-.276a1.212,1.212,0,0,1-.207-1.8l.311-.346a1.2,1.2,0,0,0,.138-1.417l-.242-.415a1.246,1.246,0,0,1,.587-1.728l.449-.173a1.239,1.239,0,0,0,.76-1.209l-.035-.484a1.2,1.2,0,0,1,1.279-1.279l.484.035a1.239,1.239,0,0,0,1.209-.76l.173-.449a1.225,1.225,0,0,1,1.728-.622l.346.207A1.259,1.259,0,0,0,32.224,7.3l.346-.311a1.208,1.208,0,0,1,1.8.173l.276.38A1.2,1.2,0,0,0,35.99,8l.449-.138a1.234,1.234,0,0,1,1.555.968l.069.484a1.252,1.252,0,0,0,1,1l.484.069a1.189,1.189,0,0,1,.968,1.52Zm-8.639,1.451a1.277,1.277,0,0,1,.207-.726.832.832,0,0,1,.657-.276.868.868,0,0,1,.726.346,1.246,1.246,0,0,1,.242.76.258.258,0,0,0,.311.242l1.52-.035a.31.31,0,0,0,.311-.311,2.548,2.548,0,0,0-.657-1.659,2.923,2.923,0,0,0-1.59-.9v-1.14A.236.236,0,0,0,33.26,9.9h-.933a.236.236,0,0,0-.242.242v1.14a2.787,2.787,0,0,0-1.693.795,2.293,2.293,0,0,0-.726,1.762,2.316,2.316,0,0,0,.691,1.8,7.589,7.589,0,0,0,2.177,1.209,2.189,2.189,0,0,1,.864.553,1.061,1.061,0,0,1,.242.76.941.941,0,0,1-.242.691.909.909,0,0,1-.691.276,1.172,1.172,0,0,1-.9-.346,1.427,1.427,0,0,1-.346-.864.3.3,0,0,0-.311-.276l-1.52.035a.31.31,0,0,0-.311.311,2.6,2.6,0,0,0,.795,1.866,3.189,3.189,0,0,0,1.935.829v1.037a.236.236,0,0,0,.242.242h.933a.236.236,0,0,0,.242-.242V20.642a2.736,2.736,0,0,0,1.52-.726,2.4,2.4,0,0,0,.691-1.762,2.368,2.368,0,0,0-.691-1.8,7.766,7.766,0,0,0-2.142-1.244,2.314,2.314,0,0,1-.864-.553A1.277,1.277,0,0,1,31.774,13.835Z" transform="translate(-23.313 -6.673)"/></svg>