<svg xmlns="http://www.w3.org/2000/svg" xmlns:xlink="http://www.w3.org/1999/xlink" width="17.084" height="15.772" viewBox="0 0 17.084 15.772"><defs><style>.a{fill:url(#a);}</style><linearGradient id="a" x1="0.5" x2="0.5" y2="1" gradientUnits="objectBoundingBox"><stop offset="0" stop-color="#00aeef"/><stop offset="1" stop-color="#0d5ba7"/></linearGradient></defs><path class="a" d="M64.416,67.148,62.457,69.14l-.111.115-.066.07a.265.265,0,0,1-.16.049.276.276,0,0,1-.177-.066l-.037-.037L61.8,69.16l-1.7-1.729-.09-.09-.07-.07a.4.4,0,0,1-.066-.218.279.279,0,0,1,.066-.181l.029-.033.107-.107,1.967-2a1.713,1.713,0,0,0-1.442-.579A3.21,3.21,0,0,0,58.432,65.2c-.029.033-.062.066-.09.094a3.994,3.994,0,0,0-.8,3.935.794.794,0,0,1,.066.189.568.568,0,0,1-.164.554l-1.557,1.5c-.485-.493-.554-.559-.554-.559a.326.326,0,0,0-.39-.049l-.242.148c-.932-.949-1.327-1.331-1.454-1.791a2.287,2.287,0,0,1,.111-1.36.958.958,0,0,1,.694-.386l.353.361a.2.2,0,0,0,.292,0l1.269-1.29a.213.213,0,0,0,0-.3l-2.05-2.082a.2.2,0,0,0-.292,0l-1.269,1.29a.213.213,0,0,0,0,.3l.136.14a1.033,1.033,0,0,1-.193.682c-.255.259-.76-.041-1.088.193a8.915,8.915,0,0,0-1,.863,9.461,9.461,0,0,0-1.963,3.064,4.146,4.146,0,0,0,.222,3.816c.205.226.579.456.513.029A4.21,4.21,0,0,1,49.3,72a2.725,2.725,0,0,1,1.972-1.154c.805-.041,1.269.234,2.312,1.294l-.115.214a.361.361,0,0,0,.049.4s.062.066.5.509L50.02,77.087a1.616,1.616,0,0,0-.012,2.3,1.56,1.56,0,0,0,2.267-.008l3.754-4.05c2.017,2.148,3.832,4.411,3.832,4.411a.2.2,0,0,0,.292,0l2.05-2.082a.213.213,0,0,0,0-.3s-2.267-1.877-4.395-3.951l1.458-1.573a.549.549,0,0,1,.546-.168.776.776,0,0,1,.185.07,3.812,3.812,0,0,0,3.861-.813c.033-.029.062-.062.094-.094a3.336,3.336,0,0,0,1.027-2.21A1.732,1.732,0,0,0,64.416,67.148Z" transform="translate(-47.901 -64.1)"/></svg>