<svg xmlns="http://www.w3.org/2000/svg" xmlns:xlink="http://www.w3.org/1999/xlink" width="20.566" height="14.708" viewBox="0 0 20.566 14.708"><defs><style>.a{fill:url(#a);}</style><linearGradient id="a" x1="0.5" x2="0.5" y2="1" gradientUnits="objectBoundingBox"><stop offset="0" stop-color="#00aeef"/><stop offset="1" stop-color="#0d5ba7"/></linearGradient></defs><g transform="translate(-15.896 -22.501)"><rect class="a" width="17.542" height="0.605" transform="translate(15.897 35.231)"/><path class="a" d="M11.466,14.708h-.9v-.164H0v-.6H15.123v.6H11.466v.163Zm6.792-2.583H.057L0,3.17V.028H10.568V0h.9V.028h9.1v12.1H18.258Zm.41-2.955a.863.863,0,1,0,.854.863A.86.86,0,0,0,18.668,9.171ZM8.221,1.369A3.918,3.918,0,0,0,5.275,2.745,4.986,4.986,0,0,0,4.054,6.067,4.986,4.986,0,0,0,5.275,9.389a3.843,3.843,0,0,0,5.894,0,4.986,4.986,0,0,0,1.221-3.322,4.985,4.985,0,0,0-1.221-3.322A3.919,3.919,0,0,0,8.221,1.369Zm10.447-.132a.863.863,0,1,0,.854.863A.86.86,0,0,0,18.668,1.237Z" transform="translate(15.896 22.501)"/><path class="a" d="M41.829,37.229V36.068a2.069,2.069,0,0,1,.823.391l.339-.575a2.31,2.31,0,0,0-1.138-.464v-.367h-.527v.355a1.222,1.222,0,0,0-1.272,1.173c0,.691.412,1.027,1.3,1.259v1.2a2.2,2.2,0,0,1-1.066-.526l-.387.556a2.792,2.792,0,0,0,1.429.6v.612h.527V39.68c.768-.067,1.29-.513,1.29-1.186S42.75,37.461,41.829,37.229Zm-.478-.128c-.466-.14-.581-.305-.581-.562s.2-.482.581-.513Zm.478,1.962V37.956c.472.141.6.305.6.581C42.428,38.831,42.21,39.032,41.829,39.062Z" transform="translate(-17.403 -9.101)"/></g></svg>