<svg xmlns="http://www.w3.org/2000/svg" xmlns:xlink="http://www.w3.org/1999/xlink" width="17" height="15" viewBox="0 0 17 15">
  <defs>
    <linearGradient id="linear-gradient" x1="0.5" x2="0.5" y2="1" gradientUnits="objectBoundingBox">
      <stop offset="0" stop-color="#00aeef"/>
      <stop offset="1" stop-color="#0d5ba7"/>
    </linearGradient>
  </defs>
  <g id="cubes-stack" transform="translate(0 -8.444)">
    <path id="Path_7715" data-name="Path 7715" d="M16.863,16.658,12.831,15.08v-4.8a.217.217,0,0,0-.137-.205L8.566,8.456a.193.193,0,0,0-.134,0L4.311,10.027a.192.192,0,0,0-.1.075.227.227,0,0,0-.047.138v4.838L.142,16.613a.193.193,0,0,0-.1.075A.227.227,0,0,0,0,16.827v4.882a.217.217,0,0,0,.136.205L4.26,23.432a.2.2,0,0,0,.134,0L8.5,21.921l4.1,1.511a.2.2,0,0,0,.134,0l4.124-1.52A.215.215,0,0,0,17,21.7v-4.84A.217.217,0,0,0,16.863,16.658ZM12.112,14.75,8.943,15.9V12.264l3.169-1.242ZM8.5,9.244l2.947,1.177L8.5,11.586l-3.11-1.147ZM4.333,18.173l-3.11-1.147L4.33,15.831l2.947,1.177Zm3.61,3.164L4.774,22.483V18.851l3.169-1.242Zm4.728-3.164-3.11-1.147,3.107-1.195,2.948,1.177Zm3.61,3.164-3.169,1.146V18.851l3.169-1.242v3.728Z" fill="url(#linear-gradient)"/>
  </g>
</svg>
