<svg xmlns="http://www.w3.org/2000/svg" width="85.976" height="65.78" viewBox="0 0 85.976 65.78">
  <g id="Group_3583" data-name="Group 3583" transform="translate(-758.553 -595.652)" opacity="0.599">
    <g id="Group_3578" data-name="Group 3578" transform="translate(766.714 632.115)">
      <g id="Group_47" data-name="Group 47" transform="translate(0 0)">
        <path id="Path_68" data-name="Path 68" d="M350.054,423.638h54.311c1.515,0,1.982-1.227,1.982-2.743H347.31A2.743,2.743,0,0,0,350.054,423.638Z" transform="translate(-345.531 -394.321)" fill="#707070"/>
        <path id="Path_69" data-name="Path 69" d="M344.443,420.895h19.251a2.946,2.946,0,0,1-3.115,2.743H344.361A1.372,1.372,0,0,1,344.443,420.895Z" transform="translate(-343.07 -394.321)" fill="#707070"/>
        <g id="Group_46" data-name="Group 46" transform="translate(19.414)">
          <path id="Path_70" data-name="Path 70" d="M391.752,384.932h38.99a2.411,2.411,0,0,0,2.368-1.961l5.255-22.55A2.411,2.411,0,0,0,436,357.56H397.007a2.411,2.411,0,0,0-2.369,1.962l-5.254,22.549A2.411,2.411,0,0,0,391.752,384.932Z" transform="translate(-389.34 -357.56)" fill="#ccc"/>
          <path id="Path_71" data-name="Path 71" d="M394.638,360.151a1.307,1.307,0,1,1,1.923.9l-5.254,22.55a1.307,1.307,0,1,1-1.924-.9Z" transform="translate(-389.34 -358.189)" fill="#707070"/>
          <path id="Path_72" data-name="Path 72" d="M448.278,390.464h-6.394a2.375,2.375,0,0,1-2.375-2.375h0a2.375,2.375,0,0,1,2.375-2.375h6.394a2.375,2.375,0,0,1,2.375,2.375h0A2.376,2.376,0,0,1,448.278,390.464Z" transform="translate(-418.459 -373.901)" fill="#fff"/>
        </g>
      </g>
      <g id="Group_48" data-name="Group 48" transform="translate(4.582 25.96)">
        <path id="Path_73" data-name="Path 73" d="M356.594,420.8h-1.918a.685.685,0,0,1-.685-.685h0a.685.685,0,0,1,.685-.685h1.918a.685.685,0,0,1,.685.685h0A.685.685,0,0,1,356.594,420.8Z" transform="translate(-353.99 -419.431)" fill="#ccc"/>
        <path id="Path_74" data-name="Path 74" d="M365.519,420.8H363.6a.685.685,0,0,1-.685-.685h0a.685.685,0,0,1,.685-.685h1.918a.685.685,0,0,1,.685.685h0A.685.685,0,0,1,365.519,420.8Z" transform="translate(-359.171 -419.431)" fill="#ccc"/>
        <path id="Path_75" data-name="Path 75" d="M374.445,420.8h-1.918a.685.685,0,0,1-.685-.685h0a.685.685,0,0,1,.685-.685h1.918a.685.685,0,0,1,.685.685h0A.685.685,0,0,1,374.445,420.8Z" transform="translate(-364.352 -419.431)" fill="#ccc"/>
        <path id="Path_76" data-name="Path 76" d="M383.371,420.8h-1.918a.685.685,0,0,1-.685-.685h0a.685.685,0,0,1,.685-.685h1.918a.685.685,0,0,1,.685.685h0A.685.685,0,0,1,383.371,420.8Z" transform="translate(-369.532 -419.431)" fill="#ccc"/>
      </g>
    </g>
    <g id="Group_3579" data-name="Group 3579" transform="translate(758.553 626.394)">
      <g id="Group_72" data-name="Group 72" transform="translate(0 0)">
        <path id="Path_101" data-name="Path 101" d="M390.764,118.328a13.182,13.182,0,0,1-2.651-.27.659.659,0,0,1-.512-.777.668.668,0,0,1,.777-.512,11.9,11.9,0,0,0,4.129.115.658.658,0,0,1,.195,1.3A13.277,13.277,0,0,1,390.764,118.328Zm5.97-1.536a.658.658,0,0,1-.32-1.234,11.677,11.677,0,0,0,3.2-2.606.657.657,0,1,1,1,.859,13.031,13.031,0,0,1-3.561,2.9A.659.659,0,0,1,396.734,116.792Zm-12.535-.353a.651.651,0,0,1-.349-.1,13.037,13.037,0,0,1-3.4-3.091.658.658,0,0,1,1.043-.8,11.742,11.742,0,0,0,3.053,2.781.657.657,0,0,1-.351,1.214Zm18.135-6.154a.659.659,0,0,1-.616-.887,11.635,11.635,0,0,0,.727-4.064.657.657,0,0,1,1.315,0,12.942,12.942,0,0,1-.809,4.522A.659.659,0,0,1,402.333,110.284Zm-23.361-.653a.658.658,0,0,1-.629-.465,13.023,13.023,0,0,1-.574-3.832c0-.245.006-.487.02-.728a.673.673,0,0,1,.694-.619.657.657,0,0,1,.619.694c-.012.215-.018.433-.018.652a11.738,11.738,0,0,0,.517,3.446.658.658,0,0,1-.435.822A.635.635,0,0,1,378.973,109.632Zm23.766-6.616a.658.658,0,0,1-.638-.5,11.581,11.581,0,0,0-1.689-3.766.657.657,0,1,1,1.085-.743,12.874,12.874,0,0,1,1.88,4.192.656.656,0,0,1-.48.8A.633.633,0,0,1,402.739,103.016Zm-23.287-1.957a.659.659,0,0,1-.6-.921A12.9,12.9,0,0,1,381.4,96.32a.657.657,0,1,1,.946.912,11.631,11.631,0,0,0-2.3,3.432A.657.657,0,0,1,379.453,101.059ZM397.9,95.924a.65.65,0,0,1-.38-.121,11.571,11.571,0,0,0-3.733-1.755.658.658,0,1,1,.338-1.272,12.882,12.882,0,0,1,4.158,1.954.657.657,0,0,1-.382,1.194Zm-12.49-1.048a.658.658,0,0,1-.286-1.25,12.9,12.9,0,0,1,4.425-1.23.658.658,0,0,1,.122,1.31,11.61,11.61,0,0,0-3.976,1.1A.649.649,0,0,1,385.406,94.876Z" transform="translate(-377.77 -92.393)" fill="#ccc"/>
      </g>
      <g id="Group_73" data-name="Group 73" transform="translate(4.373 6.694)">
        <path id="Path_102" data-name="Path 102" d="M396.814,108.347c-4.761,0-8.621,2.551-8.621,5.7v.016c0,.822.652,1.385,1.258,1.126l2.263-.966a1.359,1.359,0,0,0,.564-1.693l-.278-.759a34.147,34.147,0,0,0,9.6,0l-.281.974a1.373,1.373,0,0,0,.524,1.561l2.238,1.222c.544.3,1.179-.1,1.3-.845a3.818,3.818,0,0,0,.053-.636C405.435,110.9,401.575,108.347,396.814,108.347Z" transform="translate(-388.193 -108.347)" fill="#707070"/>
        <path id="Path_103" data-name="Path 103" d="M406.442,128.034H394.493l1.771-5.548a2.509,2.509,0,0,1,2.39-1.746h3.628a2.51,2.51,0,0,1,2.39,1.746Z" transform="translate(-391.85 -115.54)" fill="#ccc"/>
      </g>
    </g>
    <g id="Group_3580" data-name="Group 3580" transform="translate(805.808 595.652)">
      <g id="Group_75" data-name="Group 75" transform="translate(0 0)">
        <path id="Path_104" data-name="Path 104" d="M576.006,282.764a14.788,14.788,0,0,1-3-.307.745.745,0,0,1-.578-.88.753.753,0,0,1,.88-.577,13.37,13.37,0,0,0,4.668.13.744.744,0,0,1,.22,1.472A15.123,15.123,0,0,1,576.006,282.764Zm6.749-1.736a.744.744,0,0,1-.362-1.394,13.242,13.242,0,0,0,3.623-2.947.743.743,0,0,1,1.126.971,14.715,14.715,0,0,1-4.027,3.277A.733.733,0,0,1,582.755,281.028Zm-14.173-.4a.74.74,0,0,1-.395-.114,14.745,14.745,0,0,1-3.838-3.5.744.744,0,1,1,1.179-.908,13.243,13.243,0,0,0,3.451,3.145.743.743,0,0,1-.4,1.373Zm20.5-6.958a.755.755,0,0,1-.259-.047.744.744,0,0,1-.438-.956,13.158,13.158,0,0,0,.822-4.595.743.743,0,1,1,1.487,0,14.629,14.629,0,0,1-.914,5.113A.744.744,0,0,1,589.087,273.67Zm-26.417-.741a.744.744,0,0,1-.71-.525,14.7,14.7,0,0,1-.649-4.332c0-.276.008-.549.023-.822a.779.779,0,0,1,.783-.7.744.744,0,0,1,.7.783c-.013.246-.021.492-.021.74a13.2,13.2,0,0,0,.584,3.894.744.744,0,0,1-.492.93A.732.732,0,0,1,562.67,272.929Zm26.878-7.478a.744.744,0,0,1-.722-.565,13.13,13.13,0,0,0-1.91-4.257.744.744,0,1,1,1.227-.84,14.556,14.556,0,0,1,2.125,4.739.742.742,0,0,1-.542.9A.714.714,0,0,1,589.548,265.451Zm-26.333-2.214a.745.745,0,0,1-.682-1.042,14.655,14.655,0,0,1,2.889-4.316.743.743,0,1,1,1.07,1.031,13.189,13.189,0,0,0-2.6,3.881A.745.745,0,0,1,563.215,263.237Zm20.857-5.8a.736.736,0,0,1-.43-.137,13.06,13.06,0,0,0-4.222-1.986.744.744,0,1,1,.382-1.438,14.591,14.591,0,0,1,4.7,2.211.744.744,0,0,1-.432,1.35Zm-14.123-1.19a.744.744,0,0,1-.323-1.414,14.583,14.583,0,0,1,5-1.39.744.744,0,1,1,.138,1.482,13.089,13.089,0,0,0-4.5,1.246A.728.728,0,0,1,569.949,256.245Z" transform="translate(-561.311 -253.438)" fill="#ccc"/>
      </g>
      <g id="Group_81" data-name="Group 81" transform="translate(5.93 8.387)">
        <rect id="Rectangle_5" data-name="Rectangle 5" width="17.294" height="9.807" transform="translate(0 3.6)" fill="#ccc"/>
        <g id="Group_80" data-name="Group 80" transform="translate(3.164)">
          <g id="Group_76" data-name="Group 76">
            <path id="Path_105" data-name="Path 105" d="M605.264,273.964v-1.2a1.6,1.6,0,0,1,1.6-1.6h0a1.6,1.6,0,0,1,1.6,1.6v1.99h-3.2" transform="translate(-593.505 -271.142)" fill="#ebebeb"/>
            <path id="Path_106" data-name="Path 106" d="M592.269,272.716v10.192h-11.79V272.716a1.6,1.6,0,0,1,1.6-1.6h11.658l-.324.067A1.6,1.6,0,0,0,592.269,272.716Z" transform="translate(-580.479 -271.116)" fill="#fafafa"/>
          </g>
          <g id="Group_79" data-name="Group 79" transform="translate(0.733 1.645)">
            <rect id="Rectangle_6" data-name="Rectangle 6" width="2.614" height="2.684" transform="translate(0 0.015)" fill="#707070"/>
            <g id="Group_78" data-name="Group 78">
              <g id="Group_77" data-name="Group 77" transform="translate(3.415)">
                <line id="Line_1" data-name="Line 1" x2="6.646" stroke-width="0.658" stroke="#707070" stroke-linecap="round" stroke-linejoin="round" fill="none"/>
                <line id="Line_2" data-name="Line 2" x2="6.646" transform="translate(0 0.904)" fill="none" stroke="#707070" stroke-linecap="round" stroke-linejoin="round" stroke-width="0.658"/>
                <line id="Line_3" data-name="Line 3" x2="6.646" transform="translate(0 1.808)" fill="none" stroke="#707070" stroke-linecap="round" stroke-linejoin="round" stroke-width="0.658"/>
                <line id="Line_4" data-name="Line 4" x2="6.646" transform="translate(0.062 2.712)" fill="none" stroke="#707070" stroke-linecap="round" stroke-linejoin="round" stroke-width="0.658"/>
              </g>
              <line id="Line_5" data-name="Line 5" x2="10.062" transform="translate(0 3.603)" fill="none" stroke="#707070" stroke-linecap="round" stroke-linejoin="round" stroke-width="0.658"/>
              <line id="Line_6" data-name="Line 6" x2="10.062" transform="translate(0 4.507)" fill="none" stroke="#707070" stroke-linecap="round" stroke-linejoin="round" stroke-width="0.658"/>
              <line id="Line_7" data-name="Line 7" x2="10.062" transform="translate(0 5.391)" fill="none" stroke="#707070" stroke-linecap="round" stroke-linejoin="round" stroke-width="0.658"/>
              <line id="Line_8" data-name="Line 8" x2="4.89" transform="translate(0 6.295)" fill="none" stroke="#707070" stroke-linecap="round" stroke-linejoin="round" stroke-width="0.658"/>
            </g>
          </g>
        </g>
        <path id="Path_107" data-name="Path 107" d="M586.856,288.511H573.811V278.7Z" transform="translate(-573.811 -275.104)" fill="#707070"/>
        <path id="Path_108" data-name="Path 108" d="M582.765,288.511h13.046V278.7Z" transform="translate(-578.517 -275.104)" fill="#707070"/>
        <path id="Path_109" data-name="Path 109" d="M591.105,294.474H573.811l7.767-4.148a1.545,1.545,0,0,1,1.76,0Z" transform="translate(-573.811 -281.068)" fill="#707070"/>
      </g>
    </g>
    <g id="Group_3581" data-name="Group 3581" transform="translate(766.746 598.043)">
      <path id="Path_93" data-name="Path 93" d="M503.366,128.051H482.509a4.721,4.721,0,0,0-4.721,4.721V143.53a4.721,4.721,0,0,0,4.721,4.721h13.639l4.906,4.329V148.25h2.313a4.721,4.721,0,0,0,4.721-4.721V132.772A4.721,4.721,0,0,0,503.366,128.051Z" transform="translate(-477.788 -128.051)" fill="#707070"/>
      <g id="Group_67" data-name="Group 67" transform="translate(7.163 5.474)">
        <g id="Group_62" data-name="Group 62" transform="translate(0 0)">
          <path id="Path_94" data-name="Path 94" d="M521.945,151.225H507.156a.592.592,0,0,1,0-1.184h14.789a.592.592,0,0,1,0,1.184Z" transform="translate(-506.564 -150.041)" fill="#fafafa"/>
        </g>
        <g id="Group_63" data-name="Group 63" transform="translate(0 3.944)">
          <path id="Path_95" data-name="Path 95" d="M521.945,167.066H507.156a.592.592,0,0,1,0-1.183h14.789a.592.592,0,0,1,0,1.183Z" transform="translate(-506.564 -165.883)" fill="#fafafa"/>
        </g>
        <g id="Group_64" data-name="Group 64" transform="translate(0 7.887)">
          <path id="Path_96" data-name="Path 96" d="M560.019,182.908H557.85a.592.592,0,0,1,0-1.184h2.169a.592.592,0,0,1,0,1.184Z" transform="translate(-557.258 -181.724)" fill="#fafafa"/>
        </g>
        <g id="Group_65" data-name="Group 65" transform="translate(4.93 7.887)">
          <path id="Path_97" data-name="Path 97" d="M540.217,182.908h-2.169a.592.592,0,0,1,0-1.184h2.169a.592.592,0,0,1,0,1.184Z" transform="translate(-537.456 -181.724)" fill="#fafafa"/>
        </g>
        <g id="Group_66" data-name="Group 66" transform="translate(9.859 7.887)">
          <path id="Path_98" data-name="Path 98" d="M512.085,182.908h-4.93a.592.592,0,0,1,0-1.184h4.93a.592.592,0,0,1,0,1.184Z" transform="translate(-506.564 -181.724)" fill="#fafafa"/>
        </g>
      </g>
    </g>
    <g id="Group_3582" data-name="Group 3582" transform="translate(831.384 622.355)">
      <g id="Group_41" data-name="Group 41" transform="translate(3.173 4.581)">
        <path id="Path_65" data-name="Path 65" d="M510.317,338.274a.467.467,0,0,1-.33-.8l4.457-4.458a.467.467,0,0,1,.66.66l-4.457,4.457A.463.463,0,0,1,510.317,338.274Z" transform="translate(-509.85 -332.883)" fill="#707070"/>
      </g>
      <g id="Group_44" data-name="Group 44" transform="translate(0 0)">
        <g id="Group_42" data-name="Group 42">
          <path id="Path_66" data-name="Path 66" d="M499.666,324.745a.466.466,0,0,1-.467-.467v-6.3a.467.467,0,1,1,.933,0v6.3A.467.467,0,0,1,499.666,324.745Z" transform="translate(-499.199 -317.509)" fill="#707070"/>
        </g>
        <g id="Group_43" data-name="Group 43" transform="translate(5.908 12.212)">
          <path id="Path_67" data-name="Path 67" d="M525.8,359.428h-6.3a.467.467,0,1,1,0-.933h6.3a.467.467,0,1,1,0,.933Z" transform="translate(-519.027 -358.495)" fill="#707070"/>
        </g>
      </g>
    </g>
  </g>
</svg>
