<svg width="16" height="16" fill="none" xmlns="http://www.w3.org/2000/svg"><path d="M8 6.5A2.503 2.503 0 005.5 9c0 1.379 1.122 2.5 2.5 2.5 1.379 0 2.5-1.121 2.5-2.5 0-1.378-1.121-2.5-2.5-2.5zm1.5 3A.5.5 0 019 9a1 1 0 00-1-1 .5.5 0 110-1c1.103 0 2 .897 2 2a.5.5 0 01-.5.5zm1.264-6l-.28-1.122A.5.5 0 0010 2H6a.5.5 0 00-.485.378L5.234 3.5h5.53z" fill="#fff"/><path d="M14 4H2C1.173 4 .5 4.673.5 5.5v7c0 .827.673 1.5 1.5 1.5h12c.827 0 1.5-.673 1.5-1.5v-7c0-.827-.673-1.5-1.5-1.5zM3 7a.5.5 0 110-1 .5.5 0 010 1zm5 5.5c-1.93 0-3.5-1.57-3.5-3.5S6.07 5.5 8 5.5s3.5 1.57 3.5 3.5-1.57 3.5-3.5 3.5z" fill="#fff"/></svg>