<svg width="12" height="12" fill="none" xmlns="http://www.w3.org/2000/svg"><path d="M1.457 3.516l.623 7.517A1.06 1.06 0 003.13 12h5.738a1.06 1.06 0 001.05-.967l.623-7.517H1.457zm2.784 7.078a.352.352 0 01-.35-.33l-.352-5.672a.352.352 0 01.329-.373c.2-.014.36.135.373.33l.351 5.671a.352.352 0 01-.351.374zm2.11-.352a.351.351 0 11-.703 0V4.57a.351.351 0 11.703 0v5.672zm2.108-5.65l-.351 5.672a.351.351 0 11-.702-.044l.352-5.672a.357.357 0 01.372-.329c.194.012.341.18.33.373zm2.111-3.186H8.46v-.351C8.46.473 7.989 0 7.407 0H4.594c-.582 0-1.055.473-1.055 1.055v.351H1.43a.703.703 0 100 1.407h9.141a.703.703 0 000-1.407zm-2.812 0H4.242v-.351c0-.194.158-.352.352-.352h2.812c.194 0 .352.158.352.352v.351z" fill="#fff"/></svg>