<svg width="88" height="88" fill="none" xmlns="http://www.w3.org/2000/svg"><path d="M22 0c-3.025 0-5.5 2.475-5.5 5.5v77c0 3.025 2.475 5.5 5.5 5.5h55c3.025 0 5.5-2.475 5.5-5.5V22l-22-22H22z" fill="#E2E5E7"/><path d="M66 22h16.5l-22-22v16.5c0 3.025 2.475 5.5 5.5 5.5z" fill="#B0B7BD"/><path d="M82.5 38.5L66 22h16.5v16.5z" fill="#CAD1D8"/><path d="M71.5 71.5a2.758 2.758 0 01-2.75 2.75H8.25A2.758 2.758 0 015.5 71.5V44a2.758 2.758 0 012.75-2.75h60.5A2.758 2.758 0 0171.5 44v27.5z" fill="#F1592A"/><path d="M17.486 52.104c0-.726.572-1.518 1.494-1.518h5.079c2.86 0 5.434 1.914 5.434 5.582 0 3.476-2.574 5.412-5.434 5.412h-3.671v2.904c0 .968-.616 1.516-1.408 1.516-.726 0-1.494-.548-1.494-1.516v-12.38zm2.902 1.251v5.478h3.67c1.475 0 2.64-1.3 2.64-2.665 0-1.537-1.165-2.813-2.64-2.813h-3.67zM33.8 65.999c-.727 0-1.519-.396-1.519-1.361v-12.49c0-.79.792-1.365 1.518-1.365h5.035c10.049 0 9.829 15.216.198 15.216H33.8zm1.385-12.532v9.85h3.65c5.937 0 6.2-9.85 0-9.85h-3.65zm17.041.177v3.495h5.607c.792 0 1.584.792 1.584 1.56 0 .726-.792 1.32-1.584 1.32h-5.607v4.617c0 .77-.547 1.361-1.317 1.361-.968 0-1.56-.591-1.56-1.361v-12.49c0-.79.595-1.365 1.56-1.365h7.72c.967 0 1.54.575 1.54 1.364a1.52 1.52 0 01-1.54 1.496h-6.403v.003z" fill="#fff"/><path d="M68.75 74.25H16.5V77h52.25a2.758 2.758 0 002.75-2.75V71.5a2.758 2.758 0 01-2.75 2.75z" fill="#CAD1D8"/></svg>